<svg xmlns="http://www.w3.org/2000/svg" width="699.637" height="1094.764" viewBox="0 0 699.637 1094.764">
  <g id="Grupo_59" data-name="Grupo 59" transform="translate(-35.432 -43.412)">
    <g id="Grupo_58" data-name="Grupo 58">
      <circle id="Elipse_1" data-name="Elipse 1" cx="12" cy="12" r="12" transform="matrix(0.875, -0.485, 0.485, 0.875, 35.432, 188.37)" fill="#fff"/>
      <ellipse id="Elipse_2" data-name="Elipse 2" cx="11.5" cy="12" rx="11.5" ry="12" transform="matrix(0.875, -0.485, 0.485, 0.875, 72.166, 168.008)" fill="#fff"/>
      <ellipse id="Elipse_3" data-name="Elipse 3" cx="11.5" cy="12" rx="11.5" ry="12" transform="matrix(0.875, -0.485, 0.485, 0.875, 72.421, 205.597)" fill="#fff"/>
      <circle id="Elipse_4" data-name="Elipse 4" cx="12" cy="12" r="12" transform="matrix(0.875, -0.485, 0.485, 0.875, 108.281, 185.72)" fill="#fff"/>
      <ellipse id="Elipse_5" data-name="Elipse 5" cx="11.5" cy="12" rx="11.5" ry="12" transform="matrix(0.875, -0.485, 0.485, 0.875, 171.873, 112.74)" fill="#fff"/>
      <circle id="Elipse_6" data-name="Elipse 6" cx="12" cy="12" r="12" transform="matrix(0.875, -0.485, 0.485, 0.875, 207.732, 92.863)" fill="#fff"/>
      <circle id="Elipse_7" data-name="Elipse 7" cx="12" cy="12" r="12" transform="matrix(0.875, -0.485, 0.485, 0.875, 207.988, 130.452)" fill="#fff"/>
      <circle id="Elipse_8" data-name="Elipse 8" cx="12" cy="12" r="12" transform="matrix(0.875, -0.485, 0.485, 0.875, 244.721, 110.09)" fill="#fff"/>
      <ellipse id="Elipse_9" data-name="Elipse 9" cx="11.5" cy="12" rx="11.5" ry="12" transform="matrix(0.875, -0.485, 0.485, 0.875, 103.652, 150.555)" fill="#fff"/>
      <ellipse id="Elipse_10" data-name="Elipse 10" cx="11.5" cy="12" rx="11.5" ry="12" transform="matrix(0.875, -0.485, 0.485, 0.875, 140.386, 130.193)" fill="#fff"/>
      <circle id="Elipse_11" data-name="Elipse 11" cx="12" cy="12" r="12" transform="matrix(0.875, -0.485, 0.485, 0.875, 139.767, 168.267)" fill="#fff"/>
      <circle id="Elipse_12" data-name="Elipse 12" cx="12" cy="12" r="12" transform="matrix(0.875, -0.485, 0.485, 0.875, 176.501, 147.905)" fill="#fff"/>
      <ellipse id="Elipse_13" data-name="Elipse 13" cx="11.5" cy="12" rx="11.5" ry="12" transform="matrix(0.875, -0.485, 0.485, 0.875, 240.093, 74.925)" fill="#fff"/>
      <circle id="Elipse_14" data-name="Elipse 14" cx="12" cy="12" r="12" transform="matrix(0.875, -0.485, 0.485, 0.875, 275.952, 55.047)" fill="#fff"/>
      <circle id="Elipse_15" data-name="Elipse 15" cx="12" cy="12" r="12" transform="matrix(0.875, -0.485, 0.485, 0.875, 276.208, 92.636)" fill="#fff"/>
      <circle id="Elipse_16" data-name="Elipse 16" cx="12" cy="12" r="12" transform="matrix(0.875, -0.485, 0.485, 0.875, 312.942, 72.274)" fill="#fff"/>
    </g>
    <g id="Grupo_51" data-name="Grupo 51">
      <circle id="Elipse_17" data-name="Elipse 17" cx="12" cy="12" r="12" transform="matrix(0.875, -0.485, 0.485, 0.875, 424.932, 1099.958)" fill="#fff"/>
      <ellipse id="Elipse_18" data-name="Elipse 18" cx="11.5" cy="12" rx="11.5" ry="12" transform="matrix(0.875, -0.485, 0.485, 0.875, 461.666, 1079.596)" fill="#fff"/>
      <ellipse id="Elipse_19" data-name="Elipse 19" cx="11.5" cy="12" rx="11.5" ry="12" transform="matrix(0.875, -0.485, 0.485, 0.875, 461.921, 1117.185)" fill="#fff"/>
      <circle id="Elipse_20" data-name="Elipse 20" cx="12" cy="12" r="12" transform="matrix(0.875, -0.485, 0.485, 0.875, 497.781, 1097.308)" fill="#fff"/>
      <ellipse id="Elipse_21" data-name="Elipse 21" cx="11.5" cy="12" rx="11.5" ry="12" transform="matrix(0.875, -0.485, 0.485, 0.875, 561.373, 1024.328)" fill="#fff"/>
      <circle id="Elipse_22" data-name="Elipse 22" cx="12" cy="12" r="12" transform="matrix(0.875, -0.485, 0.485, 0.875, 597.232, 1004.451)" fill="#fff"/>
      <circle id="Elipse_23" data-name="Elipse 23" cx="12" cy="12" r="12" transform="matrix(0.875, -0.485, 0.485, 0.875, 597.488, 1042.04)" fill="#fff"/>
      <circle id="Elipse_24" data-name="Elipse 24" cx="12" cy="12" r="12" transform="matrix(0.875, -0.485, 0.485, 0.875, 634.221, 1021.678)" fill="#fff"/>
      <ellipse id="Elipse_25" data-name="Elipse 25" cx="11.5" cy="12" rx="11.5" ry="12" transform="matrix(0.875, -0.485, 0.485, 0.875, 493.152, 1062.143)" fill="#fff"/>
      <ellipse id="Elipse_26" data-name="Elipse 26" cx="11.5" cy="12" rx="11.5" ry="12" transform="matrix(0.875, -0.485, 0.485, 0.875, 529.886, 1041.781)" fill="#fff"/>
      <circle id="Elipse_27" data-name="Elipse 27" cx="12" cy="12" r="12" transform="matrix(0.875, -0.485, 0.485, 0.875, 529.267, 1079.855)" fill="#fff"/>
      <circle id="Elipse_28" data-name="Elipse 28" cx="12" cy="12" r="12" transform="matrix(0.875, -0.485, 0.485, 0.875, 566.001, 1059.493)" fill="#fff"/>
      <ellipse id="Elipse_29" data-name="Elipse 29" cx="11.5" cy="12" rx="11.5" ry="12" transform="matrix(0.875, -0.485, 0.485, 0.875, 629.593, 986.513)" fill="#fff"/>
      <circle id="Elipse_30" data-name="Elipse 30" cx="12" cy="12" r="12" transform="matrix(0.875, -0.485, 0.485, 0.875, 665.452, 966.635)" fill="#fff"/>
      <circle id="Elipse_31" data-name="Elipse 31" cx="12" cy="12" r="12" transform="matrix(0.875, -0.485, 0.485, 0.875, 665.708, 1004.224)" fill="#fff"/>
      <circle id="Elipse_32" data-name="Elipse 32" cx="12" cy="12" r="12" transform="matrix(0.875, -0.485, 0.485, 0.875, 702.442, 983.862)" fill="#fff"/>
    </g>
  </g>
</svg>
