<svg xmlns="http://www.w3.org/2000/svg" width="680" height="1085" viewBox="0 0 680 1085">
  <g id="Grupo_55" data-name="Grupo 55" transform="translate(-38 -42)">
    <g id="Grupo_48" data-name="Grupo 48">
      <g id="Polígono_1" data-name="Polígono 1" transform="translate(38 42)" fill="none">
        <path d="M53.5,0,107,93H0Z" stroke="none"/>
        <path d="M 53.5 8.021705627441406 L 6.91571044921875 89 L 100.0842895507813 89 L 53.5 8.021705627441406 M 53.5 0 L 107 93 L 0 93 L 53.5 0 Z" stroke="none" fill="#fff"/>
      </g>
      <g id="Polígono_2" data-name="Polígono 2" transform="translate(83 70)" fill="none">
        <path d="M53.5,0,107,93H0Z" stroke="none"/>
        <path d="M 53.5 8.021705627441406 L 6.91571044921875 89 L 100.0842895507813 89 L 53.5 8.021705627441406 M 53.5 0 L 107 93 L 0 93 L 53.5 0 Z" stroke="none" fill="#fff"/>
      </g>
    </g>
    <g id="Grupo_49" data-name="Grupo 49">
      <g id="Polígono_3" data-name="Polígono 3" transform="translate(718 1127) rotate(180)" fill="none">
        <path d="M53.5,0,107,93H0Z" stroke="none"/>
        <path d="M 53.5 8.021705627441406 L 6.91571044921875 89 L 100.0842895507813 89 L 53.5 8.021705627441406 M 53.5 0 L 107 93 L 0 93 L 53.5 0 Z" stroke="none" fill="#fff"/>
      </g>
      <g id="Polígono_4" data-name="Polígono 4" transform="translate(673 1099) rotate(180)" fill="none">
        <path d="M53.5,0,107,93H0Z" stroke="none"/>
        <path d="M 53.5 8.021705627441406 L 6.91571044921875 89 L 100.0842895507813 89 L 53.5 8.021705627441406 M 53.5 0 L 107 93 L 0 93 L 53.5 0 Z" stroke="none" fill="#fff"/>
      </g>
    </g>
  </g>
</svg>
