<svg xmlns="http://www.w3.org/2000/svg" width="763.332" height="1129.591" viewBox="0 0 763.332 1129.591">
  <g id="Grupo_57" data-name="Grupo 57" transform="translate(-17.033 -22.566)">
    <g id="Grupo_50" data-name="Grupo 50">
      <path id="Trazado_1" data-name="Trazado 1" d="M1725.59,136.543,1804.5,168.7l12.236-70.84,80.071,42.121V63.993l80.8,48.6" transform="translate(-1623.02 645.246) rotate(-20)" fill="none" stroke="#fff" stroke-width="7"/>
      <path id="Trazado_2" data-name="Trazado 2" d="M1725.59,136.543,1804.5,168.7l12.236-70.84,80.071,42.121V63.993l80.8,48.6" transform="translate(-1599.066 663.775) rotate(-20)" fill="none" stroke="#fff" stroke-width="7"/>
    </g>
    <g id="Grupo_56" data-name="Grupo 56">
      <path id="Trazado_3" data-name="Trazado 3" d="M1725.59,136.543,1804.5,168.7l12.236-70.84,80.071,42.121V63.993l80.8,48.6" transform="translate(-1162.992 1560.246) rotate(-20)" fill="none" stroke="#fff" stroke-width="7"/>
      <path id="Trazado_4" data-name="Trazado 4" d="M1725.59,136.543,1804.5,168.7l12.236-70.84,80.071,42.121V63.993l80.8,48.6" transform="translate(-1139.039 1578.775) rotate(-20)" fill="none" stroke="#fff" stroke-width="7"/>
    </g>
  </g>
</svg>
