<svg xmlns="http://www.w3.org/2000/svg" class="posterSVG_part unclickable hide" data-feature="flower4" xmlns:xlink="http://www.w3.org/1999/xlink" viewBox="0 0 2848 4288">
  <g id="stem" class="g-to-color" style="isolation: isolate">
    <path d="M614,1348c0,13.74,1.21,28.42,4,40,4,16.44-2,36.07-2,52h2c3-2,7.44-1.19,11-3,5.1-2.59,7.91-8.4,12-12,4.77-4.2,12.22-4.82,18-8,8.27-4.55,15-14,24-18v1c-1.65,1.79-1.75,2.51-2,6,6,4.4,22.75,21.53,26,28,2.15,4.27,1.17,7.77,4,11,6.36,7.25,12.85,8.84,13,23-6.84,6.62-8.2,17.19-9,30-3.15,2.09-5.35,6.73-9,8-7.09,2.47-12.39-1.12-17,3-5.48,4.89-2.34,12-6,17l-10,5c-2.72,2.74-1.9,7.49-4,11-8.06,13.44-13.14,6.66-13,32-10.34,0-18.19,1.93-30,2,.09,3.09.14,6.33-1,8-1.55,4.69-6.51,12.4-11,14-4,1.45-8.92-1-12,1s-3.13,7.83-6,10c-4.42,3.34-7.33-.65-9,6,3.15,1.94,4.57,3.08,5,8-4,2.16-8.74,4.14-12,7,1.42,5.36,3.74,6.83,4,14-3.2,4-2.4,5.94-10,6,.55,7,4.27,8.24,6,14h-2c-2.39-1.77-5.78-2-10-2,.06,7.12,2.49,8.73,4,14H559c-18.13-10.79-60.5,7.81-60-22-9.47-9.74,5.49-22,2-36-1.79-7.14-9.22-12.74-10-17-.12-.67,1.92-4.58,2-5,.92-4.64-2.38-11.86-4-16-2.82-7.2-10.39-8.75-11-18,4.62-2.87,10.63-3.16,19-3,11-7.89,23.14-6.41,37-10,2.07-3.59,1.94-7,4-11,1.72-3.33,7.77-5.06,9-9,2.54-8.15-5.7-11.37-8-15-2.43-3.84-1.58-9.36-4-13-4.49-6.75-12.91-14.58-19-20-5.21-4.63-15.25-9.37-17-17,3.29-2.2,5.66-7.32,9-9l13-2c2.61-1.23,6.37-4.82,9-6,6.34-2.84,12.36-2.59,18-6,1.79-1.09,3.91-4.27,6-5h8c.19-.07,18.73-10.73,19-11,7.77-7.78,3.82-26.56,7-39,4.22-16.52,12-27.54,22-38Z
    
    M683,1397h2v1h-1v1C683.2,1398,683.64,1398.73,683,1397Z

    M2102,1676c-3.47-.13-8-.33-10,1-8.29,3.09-3.44,9.27-7,17-1.57,3.4-15.29,14.41-19,18,.1,9.83.63,21.77-1,30-3.32,2.08-11.85,4.68-14,8-3.8,5.89.25,10.29-7,13-1.9,1.22-7.64,1.57-10,2a10.92,10.92,0,0,1-2,3c.63,1.75.19,1,1,2,1.82,5.72,8.88,12.13,13,16,.1,6.82.07,14.66-1,20-3.34,1.91-12.4,4.12-14,8-3.12,4.79-2.19,10-7,13-3.94,2.43-8.38,2.48-10,7s1.18,10.47-1,14c-3.26,5.26-12.77,4.91-16,10s-.37,12.93-4,17-10,4.46-14,8c-2,1.82-3,5.09-5,7,.35,9.86,5.83,9.66,8,16q-.49,8-1,16c-5.32,3.58-8.47,9.61-13,14,0,12.9,7.2,12,10,20,3,8.55-.73,17.52,3,25s12.61,8.37,18,14c3.83,4,1,11.86,4,17,3.13,5.37,11.51,6.29,14,12,2.83,4.52,1,18.73,2,24,3.16,1.31,11.54,1,15,3s5.86,7.56,10,9h16c3.54,1.25,5.51,5.56,8,8-1.21,5.49-6.73,12-4,20,1.27,3.75,6.78,6.23,8,10,1.77,5.48-1.92,10.23-2,16v20c.66,2.36,3.33,5.35,4,8,2.09,8.26-2.71,13.42-4,18v50a68.69,68.69,0,0,1,14,1c2.08,4.84,1.85,14.94,3,21l9,3c6.22,3.61,9.33,10.92,18,12,2.18-2.94,5.5-4.42,8-7,1.75.63,1,.19,2,1,10.61,4,1.5,16.25,10,20,1.18.8,1.68.77,4,1,.5-6.24,3.08-3.63,5-7,3.52-6.18-2.1-11,7-12,2.6,3.77,7.48,10.24,13,11v-2c2-2.74,2.74-7.74,3-12h12v-22c5.34.4,6.14,2.17,11,3q.49,6,1,12c8.08,5.53,12.31,16.18,20,22,6.29,4.76,13.22,7.33,20,12,6.36,4.38,15.4,16.13,19,23,.33,2,.67,4,1,6,9.32,17,24.92,37.32,29,56,3.28,15,11.4,56.72-7,58-6.84,4.53-31.82-1.29-36-4-10.66-6.9-22-14-33-21-3.13-2-5.75-6.21-9-8-5.9-3.25-10.18-.37-16-3-7.24-3.27-13.18-11.32-20-15-7.86-4.24-14.44-6.57-22-11-3.58-2.1-9.08-3.44-13-6l-6-7c-8.33-5.46-18.06-6.28-27-11-7.12-3.76-14.46-11.07-22-15-3.6-1.88-6.26-1.36-10-3-7-3.07-14.48-8.43-22-11-6.63-2.26-12.08-1.94-18-5-11.52-6-25.15-13.88-37-20l-21-7c-2.57-1.21-4.65-4.56-7-6-3.64-2.23-7.5-1.27-12-3-10.52-4-21-12.68-31-17-9.49-4.11-18-5.47-27-10-5.07-2.56-9.84-7.79-15-10-15.18-6.49-29.14-9.51-44-16-10.17-4.44-20.79-11.75-31-16-29.22-12.16-57.87-19.18-84-34-4.21-2.39-4.37-8-7-10l-6-1c-3.54-1.89-5.27-5.33-8-8l3-18a57.84,57.84,0,0,0,9-8c12.83.31,10.63,5.5,18,8,8.88,3,14.59-3.32,20-4,7-.88,18.91,2.2,24-1,12.7-4.4,11.88-22.48,20-26,2.93-1.85,12.55-1.38,16-2,1.32-1.85,3.88-3.14,5-5,2.11-3.49,1.27-8.27,4-11,3.34-3.34,10.47-2.84,14-6,4.53-4.05,5.88-11.5,10-16s11.55-5.64,16-10c1.35-1.33,1.61-3.68,3-5-1.71-7.17-5.63-9-6-18,5.92-5.43,12.26-10.44,18-16-.63-1.75-.19-1-1-2-2-5.83-7.31-7.35-10-12-1.82-3.15.4-7.9-1-12-.93-2.73-5-5.29-6-8-2.65-7.37-2.45-18.26-1-26,13.31-8.33,21.47-3.68,39-7,.33-1,.67-2,1-3,3.82-6.1-4.47-12.27-5-20,1.93-1.7,3.41-5.07,6-6,10.26-3.7,16.76,4.43,18-10-5-4.92-8.91-11.12-14-16,.63-1.75.19-1,1-2,3.47-10.08,15.77-9.7,17-22-2.81-2.68-4.67-6.89-8-9-4.36-2.76-9.39-2.71-13-6-3.43-3.12-5.66-7.76-9-11v-4c2.72-2.61,19.41-19.83,20-22,1.86-6.84-6.55-9.79-8-14-1.65-4.79-.87-20.93,1-24,3.08-9.34,14.22-10.4,20-17,3.75-4.28,2.26-13.72,6-18,1.47-1.69,4.4-2.4,6-4,7.5-7.52,15.08-16,22-24,3-3.48,1.77-10.67,6-13,1.94,6,7.07,8,11,12,10.77,0,15.32-5.71,22-9l12-2c12.15-4.55,26.31-12,38-18,6-3.07,16.4-2.59,19-9,1.85-2.93,1.38-12.55,2-16,5.3-2.28,16.43-1.75,23-3,3.29-5.8,3.68-15.19,12-16,9-6.2,20.15,7.39,25,10,2.42,1.3,6.83.73,8,3v6c-3.68,3.18-3,12.35-4,18-6.54,2.69-10.51,3.73-15,8Z
    
    M1975,1648h4c1.22,2.28,1.64,2.25,2,6,1.87,2.84.4,6.25,0,10-2.28,1.22-2.25,1.64-6,2-1.37-2.54-1.92-3.5-2-8C1974.23,1656.1,1974.57,1650.36,1975,1648Z
    
    M1389,2250c10.08,6,9.51,15.88,17,24,7-1.95,7.74-7.12,16-8,2.17,2.46,7.35,6.21,10,5,6.39-2.11,7.94-5,18-5,2.66,2.41,5.47,2.21,7,6,0,.73-2.24,5.12-3,8v68c0,39.05-4.62,78.29,4,113,2.12,8.53.67,18.08,2,24v49c0,40.9-2.08,88.36,5,120v50c2.22,6.25.06,17.36,2,26,4.87,21.63.88,48.09,6,69q.49,11.51,1,23c8.15,36.08,1.93,87.67,5,114,1.13,9.71-2.85,24.33,0,36,3.46,14.2-.73,45.19-1,59-.3,15.37.71,40.23,1,54,.32,15.16-2,37.44,0,51,.2,1.38-1.09,6.95-1,10,.34,11.07-.33,30.75,1,40,2,13.74.17,35.83,4,52,6.31,26.64,8,54.75,8,88v36c-2.08,9.35,1.49,23.46-1,34-4.92,20.86-4,47-4,74v33c5.42,23.45,9.06,47.33,15,70,2.22,8.46.3,15.1,3,23,1.31,3.84,4.66,10,6,14q1,9,2,18c1.42,3.81,4.65,8.42,6,13,2.55,8.66-1.5,20.31,1,30,3.27,12.67,9,17.17,9,35a59.88,59.88,0,0,0-9,7c-16,.11-25-2.87-39-3-4.76-8.44-11.79-12.8-17-20q-4-8-8-16c-4.79-6.62-13.38-10-16-19-1.19-4.11.39-11.42,1-14q-.49-20-1-40c-1.08-3.79-4-8.95-5-13v-56c-1.6-7.46-.93-25.87-4-39v-39c-6.29-27.48-4-63.9-4-101v-95c-4.51-23.34-4-48.79-4-82q-.49-24.49-1-49-6.49-55-13-110-.49-17-1-34c-1.4-5.24-4.61-10.46-6-16v-16c-4.29-18.74-2.46-39.71-7-59v-11c-3.69-16.08-2-31.06-2-50v-21c-2.36-9.54-8.77-13.73-12-21-3.09-6.95-.48-15.12-2-23-9.57-3-22.14-11.73-37-8-3.78.95-8.76,4-12,5l-19-1c-3.63,1-16.74,4.83-20,7-7.92,5.28-8.55,14-14,22-4.53,6.62-14.49,11.15-21,16-13.14,9.78-24.52,23.71-38,33-21,14.5-42.58,27.75-64,42-17.61,11.72-33.13,27.62-50,40-18.18,13.34-36.73,24.68-55,38-7.4,5.39-14.43,14.63-20,22l-19,18c-4.63,6.15-8.5,12.76-14,18-3.34,3.19-8.29,5.25-11,9-5.63,7.8-9.42,15.51-15,23-.26.35-15,17-15,17-6.49,3.78-14.85,3.15-19,9-2.09,2.94-1.22,6.57-3,10-2.39,4.6-8.32,6.13-11,10-.67,2.33-1.33,4.67-2,7l-7,6c-2.08,3.88-1,8.06-3,12-3.62,7.23-8.87,16.11-13,23-9.88-4.05-20.93-5-36-5-7.33-18.49-12.09-36.8-16-57v-20c0-14.57-1.92-33.23,1-46v-13c1.38-6,4.31-17.32,3-24-3.33-17,17.25-52.63,23-68,2-5.47,2-11.47,5-16,4.07-6.06,11.85-10.81,16-17,7-10.51,10-22.58,17-33,14.19-21.27,34.71-39.71,55-55l10-11c3.43-2.59,7.48-4.62,10-8,3.09-4.16,5.06-10.77,9-14,3.45-2.83,8.44-3.29,12-6,3.19-2.43,4.71-7.55,8-10,4.65-3.47,10-4.6,15-8,19.54-13.28,29.59-38.69,51-50,3.72-2,7-1.31,11-3,8.53-3.63,16.52-10.26,25-14,16.44-7.25,33.52-13.9,50-20,10.85-4,23.94-4.92,34-8,20.94-6.4,49.39,2.1,64,7,12.64,4.24,23.35,6.13,36,11,5.24,2,10.83,6.79,16,9,4.42,1.89,8.31,1.55,12,4,2.88,1.91,5.41,5.47,9,7,13,5.51,33.64,5,49,4,4.3-6.71,11.68-12.61,14-21,4.2-15.23-2.43-38.46-5-48-3.78-14.06,1-33.09-2-47v-21c0-15.9-2-35.91,1-50,2-9.17.64-25.4-1-33-4.14-19.25,2.87-43-1-61-3.27-15.22,2.85-29.65,0-43-3.3-15.46,2.59-36.3-1-53C1387,2289.13,1385.28,2259.53,1389,2250Z

    M984,2368l10,1c1.72,3.79,4,9.56,8,11l10,1c3.94,2.25,3.62,5.34,10,6,9.2-13.64,15.65-4.92,24,0,3.28,1.93,7.94-.28,10,3-7.68,6.45-10.61,18.18-16,27-2.25,3.68-5.61,9.32-9,12-1.27,1-3.2.63-4,2l-3,16c-3.61,8.57-10.91,16.75-14,25q-.5,6-1,12c-1.17,4.12-4.89,8.24-6,12-4.87,16.55-1.07,56.32-17,60-3.1-5.17-8.19-9.85-10-16q-1-7.5-2-15c-.49-1-3.59-3-4-4q-1-22.5-2-45c-4.1-18.81-6-49.09-1-69,3.08-12.36,1.1-27.49,8-36C976.86,2368.71,981.49,2369.6,984,2368Z" fill-rule="evenodd"/>
  </g>
  <g id="petals" class="g-to-color" style="isolation: isolate">
    <path d="M1212,973a145.89,145.89,0,0,0,1-16,17.82,17.82,0,0,0,4-3c10.36,2.39,15.57,9.81,28,11,4.26-4.87,6.62-10,16-10,5.19,5,17,13.27,26,8,6.51-3.81,8-10.4,18-11,3.63,6,6.83,11.17,17,11,2.79-2,7.21-1.88,10-4,4.18-3.18,2.92-6.8,10-8,3,3.08,4.71,2.69,5,9,1.86,3,2.31,11.88,3,15a25,25,0,0,1,5,4c12.48,0,11.2-6.57,23-7,5.46,6.62,22.67,4.94,26,13,2,4-3.42,7.62-4,14,1.51,1.41,2.21,2.76,4,4,4.38,3.46,12.61,4.94,20,5,3.8-6.47,4.71-17.44,9-24,3.09-4.73,8.89-8.29,12-13,4.13-6.25,6.49-17.44,13-21,3.79-2.07,9.25.52,14-1,6.17-2,5.46-6.88,15-7,3.73,4,8.55,6.74,16,7,4.33-3.86,8.78-9.34,16-10l8,13,12,4c3.85,3.06,1.43,7.88,7,10,5.86,3.44,15.82-1,20,4,2.94,4.4.35,9.09,3,13,1,.8.27.35,2,1,4.68,3,17.35,2.09,24,2l7,8q.49,7.5,1,15c-1.87,5.66-19.29,18.84-15,26,1.66,4.61,4.27,4,5,10l-13,9c-2.9,4.94-.26,7.77-6,10-6.42,4.53-19.81,1.16-23,9-.88,1.29-.89,2.47-1,5,4.15,4.58,5.81,12.56,12,15,8.25,7.29,43.89,1.51,53-1,5.48-1.51,10.93-.31,15-3,6.63-4.4,6.51-10.5,18-11v1c6,2,6.66,5.51,10,10,2.72,3.67,7.21,6.17,9,11,3.08,8.33,1.33,24.31,3,32,3.69,2.32,6.09,3.12,13,3,1.29-.88,2.47-.89,5-1,4.1,7.19,6.93,16.62,18,17,.37-.66,13-19,13-19h4c2.39,3.93,4.68,6.75,11,7,1.71-1.68,3.69-2.67,5-2,5.81,1.67,5.92,5.25,13,6,2.42-3.7,6-5.88,9-9,1.75.63,1,.19,2,1,4.36,3.34,4.17,10.24,8,14,3.19,3.13,10.39,2.3,13,6,4.78,6.75,2.59,16.83,11,20,2,1.28,17.28,3.87,20,4,2.63-4.57,4.77-9.69,12-10,2.18,3.33,5.35,5.2,8,8,14.12.07,11.76-7.88,22-10,6.64,7.07,14.4,8.53,23,14,4,2.56,4.46,8.25,8,11,5,3.92,11.88,5.09,17,9l7,10c3.54,2.64,9.2,3.7,12,7,4,4.67,5.77,12.75,11,16l15,2,5,6c5.79,2.55,12.73-1.76,18-2,1.51,3,2.83,8.39,6,10,3.62,2.25,10.27-.71,16-1,2.69,4.24,6.55,7.34,8,13,1.12,4.36-.94,9.93,1,13,3.81,3.56,9.37,4.12,14,7,10.71,6.66,16.49,16.82,34,17,4.27-3.68,9.09-4.69,14-8,4-2.71,2.84-6.69,9-8,1.94,3.15,3.08,4.57,8,5,1.5-3.16,2.43-4.79,6-6v1c6.54,8.06-.62,29.18,2,41q2,15.49,4,31c1.16,3.72,4.85,7.61,6,11q.49,8.51,1,17l7,6c4,6.09.09,11.34,10,12,2.53-1.78,6.76-2,11-2,.33,1,.67,2,1,3,3.47,5.43,1.4,14.6,4,21,.71,1.74,2.94,3.33,4,5l3-1c1.45-5.27,5.15-11,11-12,1.71,3.71,3.5,5.32,6,8l15-2c2.49,4.77,4.05,10.36,11,11,1.92-1.77,3.14-1.9,7-2,2.9,5.56,4.51,12.66,13,13,2.91-4.44,7.43-7.23,11-11l3,1c.38,8.47,1.18,19.84,4,26,9.63.43,11.55-6.58,21-8,1,.8.27.35,2,1v2c5.38,9.25-3.61,27,6,32,3.59,2.76,11,1.19,18,1,1.12,2.09,1.43,1.83,2,5-12.08,11.83-23.71,49.17-19,74h5c3.09-3,7.53-4.28,11-7,3.23-2.53,12.2-17.8,15-22,3.7-5.55,3.84-14,10-17,1.07-.75.95-.6,3-1,3.67,5.57,9.46,8.37,14,13,7.82-.35,8.77-3.61,17-4,2.82,5.59,3.86,13.57,9,17,3.94,2.76,10.88,1.2,13,6,2.17,4-2.45,9.52-1,13,3.27,8.35,15.68,9.72,17,20-2.81,2.17-4.44,5.58-7,8,.14,21.4,18.82,26.73,20,40-3.41,3-8.81,16.89-4,24,4.37,11.48,23.43,10.64,24,22-.75,1.07-.6,1-1,3,5,2.1,14,3.55,16,9h-1c-1.82,1.74-4.61,2.87-7,4,.33,1,.67,2,1,3,4.77.9,11.9,1.82,13,7-3.36,2-7.11,4.33-8,9,2.88,1.83,3.61,2.42,4,7-4.75,1.13-9.55,4-14,5-4.92,1.12-9-2.4-12-1-2.52,1.46-1.83,1.26-2,5,2.12,2.55,2.85,5.38,3,10a14.17,14.17,0,0,1-4,1c-4.38-4.51-12.68-9.87-20-11,.07,2.53.12,3.72,1,5,2.86,8.58,18.09,24.86,25,30,6.11,4.55,16.23,6.12,17,16-3.36,1.12-3.31,1.13-4,5,5.17,4.69,14.22,11.36,15,20-2.74,1.71-4.85,3.61-6,7,1.67,1.79,2.35,4.12,3,7h-2c-1.42,1-3.27,1-6,1v4c-3.73,2-7.82,4.64-12,6v-1c-8-5.84-3.2-16.42-8-24-3.47-5.48-8.23-7.52-14-11-6.58-4-9.9-12.62-16-17-3-2.18-6.49-2.12-10-4-4.06-2.18-7.61-9.19-13-7-7.08,2.47-17.91,20.8-18,31,5.32,1.29,6.76,3.88,10,7-.63,1.75-.19,1-1,2-3.41,9.28-12.47,12.44-10,26,5.43.3,13.65-.13,15,5-5.69,4.15-9.18,8.65-9,19,3.28,1.87,10.2,6.82,9,10-1.53,4.1-11.4,9.69-15,13-.1,7.41-.46,11.41,0,18,3.36,2,11.16,9,10,12-2.5,6-28.22,16.28-37,18-2.95,11.16.93,12.69,2,23-15.9-.15-20.82-1.9-34,1-2.39,6.76-7.6,6.76-8,16,3.93,2.59,5.78,6.75,9,10,6.27,6.33,18.3,16.75,26,21,6.06,3.34,18.52,2.51,24,6,1.14,1.69,1.07,4.9,1,8-1.64,2.48-1.12,8.9-1,13,5.94,3.65,19.49,9.07,21,17-4.44,2.91-7.23,7.43-11,11v12c3.94,3.09,14,15.42,15,21-8.18,7.7-12.94,4.64-26,7l-5,6c.09,10.53,1.67,15.47,0,23h-2c-2.55,1.63-10.79,1.68-14,2q-1,5.51-2,11c-3,2.14-3.17,3-9,3-1.95-1.45-5.69-1.71-7-1-2.39.84-1.64.4-3,2-3.61,4.64-2.15,18.07-2,26-1.77,1-1.68,1.26-4,2-3.52,2.2-8.07-.58-13-1v17c.28,1,2.84,4.21,3,5,.51,2.49-2.15,7.07-1,11,1.23,4.22,6,13.3,5,16-1.29.88-2.47.89-5,1v7c-2.67.92-6.93,1.05-11,1-4.17-5.58-17.77-21.61-25-23-2.49,4.8-3.28,8-11,8-2.56-1.76-6.19-.64-9,0-1.92,5.14-1,11.28-8,12-2.13-2.09-3.88-2.71-8-3v22h-12l-3,14h-4c-2.73-5-5.77-10.36-13-11-1.25,2.84-1.45,9.17-3,12-1.86,3.39-4.19.9-5,7l-6-1c-1.71-4-2-11.93-3-17a25,25,0,0,1-5-4c-1.75.63-1,.19-2,1-5.25,1.77-5.42,5.22-12,6-4.19-5.44-21.54-13.57-23-17-2.09-3.32-1.3-14.12-2-18l-3-1c-2.31-1.54-8.11-1.12-12-1v-50c1.23-4.78,6.29-9.86,4-18-.67-2.36-3.31-5.35-4-8-2.65-10.24,3.84-30.37,2-36-1.23-3.77-6.71-6.25-8-10-3-8.74,4.8-15.48,3-20-4.1-11.6-11.15-3.89-23-8-4.74-1.64-7.27-8.35-12-10-6.79-2.37-10.22,2.34-13-4-2.83-4.52-1-18.73-2-24-5.41-2.47-13-6.3-15-12-2.21-6.4.94-11-3-15-6.19-6.31-16.7-5.51-18-17-5.68-9.72.77-23.17-11-27-2.57-1.56-9.45-.4-12-2,7.45-2.38,5.36-6.9,9-13,3.54-5.93,22.78-16.45,14-30-2.23-6.56-6.67-6.66-7-16,2-1.9,3-5.18,5-7,5-4.51,12.5-5,16-11,2-3.42-.11-10.66,2-14,3.75-5.92,13.23-4.46,16-12,1.89-3.19,0-10.79,2-14,2.94-4.73,11-5.42,14-10s-.57-8.62,5-11c1.47-.93,3.74-.11,6-1,2.56-1,4.1-4.22,6-6,.16-5.11,1.17-14.71-1-18-1.82-5.72-8.88-12.13-13-16,.63-1.75.19-1,1-2,1.12-2.87.17-1.84,3-3,1.9-1.23,7.64-1.57,10-2,2.26-3.64,4.36-13.59,8-16,5.12-3.39,8.62-.64,11-7,4.06-6.68-1.83-19.79,1-28,1.64-4.74,8.36-7.26,10-12q.49-8,1-16c5-11.68,15.2-13.39,20-21,1.63-2.59,1.07-4,3-6,3.55-3.64,8.63-4,10-10-14.37-5-33.74-11.86-54-8a25,25,0,0,1-4,5c2.57,11.94,8,22.29,5,38-3.91,1.66-12.84,3-17,4h-14c-2.36.67-5.35,3.32-8,4h-44c-2.36.67-5.35,3.32-8,4-6.8,1.74-15.51-1.72-21,1-4.25,2.11-29.59,26.84-32,31-2.71,4.68-.72,11.25-4,15-4.18,4.78-11.26,5.74-16,10-2,1.82-3,5.08-5,7v24c1.94,5.57,7.12,6.08,8,14-5.44,5.13-19.22,17.51-20,26,3.35,3.2,5.55,8,9,11s8.8,3.32,13,6c3.32,2.11,5.21,6.3,8,9v4c-6.09,5.85-11.92,12.14-18,18,.63,1.75.19,1,1,2,2.5,6.78,11.3,9.59,13,16,2.92,11-12.64,9.72-20,11-7.86,11.82-1.3,9.73,2,19,1.54,4.34.6,8,2,11h-2c-1.74-1.18-28.28-2.27-32-1-3.09,1.06-7.78,4.8-9,8-2.36,3.57-1.15,14,0,18,1.67,5.88,5.48,9.64,7,14v10c1,2.9,9.48,11.67,12,14-.63,1.75-.19,1-1,2-2.43,7.39-11.76,11.23-17,16,.32,8,7.09,12.89,5,18-2.74,8.12-12.87,9.23-18,15-4.18,4.7-5.32,11.84-10,16-3.54,3.15-10.65,2.66-14,6s-2.66,10.68-6,14c-3.85,3.83-14.69,2.85-21,4-6.25,14.74-7.82,16.71-18,27h-26c-4,1.25-9.87,6.75-18,4-5.53-1.87-8.88-11.81-20-8-5.66,1.94-8.34,10-14,12-7.06,2.46-12.87-.51-18,3-2.38,1.63-2.48,4.35-4,7-3.89,6.8-8.91,7.19-18,9-1.48,3.76-2,8.42-6,10-4.09,2.4-9.1.47-12,4-2,2.69-1.06,7.91-3,11-3.15,5-10.21,5.53-15,9l-5,6c-.08,11.63,2.84,15.94,3,27-7.94,4.71-10.4,8.53-10,22a21.34,21.34,0,0,0-4,4c-1.75-.63-1-.19-2-1-4-1.34-9.14-6.12-12-9-6.54-.18-11.84.28-16,2-1.6,3.61-4.8,8.25-6,12-3.15,9.85,1.84,16.84-11,17-3.67-5.51-8.34-8.2-18-8-3.33,6.39-5,17.89-15,18-2.47-2-6.38-2.13-9-4-8-5.71-8.74-15.88-22-17-1,.8-.27.35-2,1-3,6.37-9,12.77-11,19v9c-.61,1.69-3,3.39-4,5-1.75-.63-1-.19-2-1-5.28-1.44-7.62-5.59-12-7-10.37-3.33-14.81,6.89-20,5-3.69-1.21-6.82-6.41-12-5-4.57,1.25-7,8.8-12,7-11-4.24-4.54-23.82-16-28-6.17-3.75-13.8,3.71-20,0-5.36-1.86-21.54-19.09-23-25-1.69-6.84,2.22-15,1-22-4.85-2-15-2-20-4-2.18-4.85-8.92-31.26-12-33-2.58-2.8-5.11-4.38-10-5-2.76,4.55-4.1,6.76-4,15-5.07,7.64-2.78,20.16-6,30-5.14,15.72-19.92,4.88-20,27-.8,1-.36.27-1,2-4.58,1.76-13,1.16-15,6-2.84,4.35-.19,13.79,0,20-5,3-10.48,6.32-16,9-.48,8.23-1.58,12.6-2,21h-19c-2.7,4.31-4,7.28-4,15-3.85,2.41-6.82,3.14-14,3a60.23,60.23,0,0,1-9,12c-11.1-1-20.1-2.16-31,0a18.26,18.26,0,0,0-1,6c1.65,2.43,1.92,7.19,2,11l-9,2c-5.39,3.58-3.28,23.24-3,32a25.25,25.25,0,0,1-8,1c-2.75-2.6-6.47-3.06-12-3-4.6,9.25-1,23.71-14,25-4.63-5.13-8.65-9.41-18-10-5,6.58-8.09,14.11-20,14-5.61-9-10.33-14.4-26-14-9.38,9-14.11-3.88-26,0-3,1-5.33,6.14-8,7-5.27,1.7-7.46-4.53-10-6l-12-2c-3.86-2.47-3.32-7.94-8-10-4.13-2.37-8.81,1.91-13,0l-4-6c-6.69-4.34-13.4.57-17-7-7.1-7.33-1-19.38-2-30-5.8-1.5-20-2.38-23-7-2.4-3.73,1.11-8.21-1-12-3.91-3.56-7.5-1.25-13-3-.1-4.55-.79-7.44-4-9-2.27-1.48-6.16-.9-9-2-1.85-.72-6.52-1.68-9-3l-3-4c-5.43-2.26-22.08,6-27,7-6.07,1.19-13.72-2.89-19-4-1.44-2.67-2-4.22-2-9,3.37-3.34,4.14-6.92,4-14a38.53,38.53,0,0,1-9-1v-6c-.88-1.29-.89-2.47-1-5h-8c-1.84-2.92-2.74-2.9-3-8,5.41-3.39,11.44-8.68,12-17-.8-1-.35-.27-1-2-5.36-3.38-10.37-5.05-19-6-.24-5.09-2.43-9.2-1-12,1.86-5.45,9-11.31,13-15a50.14,50.14,0,0,0-1-11c-4.44-2.33-14.14-5-16-10-1.75-3.25,1.24-11.17-1-17-5-2.05-8-2.46-8-10,4.62-3.85.25-7.75,3-14,1.59-3.61,5.06-3.23,6-9-3.76-3.34-9.87-7.18-11-13,7-6.32,9.82-14.45,9-26-6.68.35-11.89.37-14-4-2.77-4.19-2.12-13.34-2-20-5.19.11-11.31,1.74-13,1-4.24-1.41-4.21-3.32-4-9,1.48-1.91,1.85-3.32,1-5-1.29-2.47.43-.68-2-2-2.63-1.73-27.08-1.78-34,0-2.22.57-6.36,3.74-8,4-3.4.53-5.71-2.87-11-3-3.45,5.87-8.51,9.27-13,14-.89-.32-14.81-8.65-15-9-3.9-7.34,2.56-8.68-10-9-1.68,2-4,2.38-7,3-2.08-2.69-5.81-4.47-7-8-.33-3.33-.67-6.67-1-10-3.76-4.6-8.49,3.09-10-7,5.48-7.66,4.47-14.71,7-26,4.26-19,2.72-41.51,3-64,.11-9.2,1.89-17.7,1-26h-4c-8,13.28-16,28.63-21,45q-.5,8.51-1,17c-1,3.74-4,7.57-5,11-2.08,7.26-.22,12.83-3,19-1.93,4.27-7.55,7.11-10,11-4.73,7.53-.71,18.76-12,20-1.79-1.65-2.51-1.75-6-2-4.33,4.68-17.81,22.53-23,24l-9-1c-2.24.7-2.49,2.38-6,3v-4a18.26,18.26,0,0,0-6-1c-2,2.1-5.85,4-8,3-2.54-1.46-1.13.22-2-3,4.93-7.46-2.51-16.87-3-24,4.3-3.59,7.85-11.42,8-19-4.6-3.8-5.51-6.89-9-12l-12-11c-2-3-1.64-5.65-4-8,1.72-8.09,6.18-14.14,5-22-5.47-.55-9.11-2.68-10-8a85.15,85.15,0,0,0,13-10c-.07-9.37-4.09-9.15-5-17,3.34-2.81,14.72-10,12-15-2.09-5.88-7.85-7.14-10-13,14-2.57,16.8-4,25-12,.16-6-.43-10.21-2-14-3-1.78-9.9-4.15-12-7l-4-9c-3.17-2.62-5.21-.65-7-5-.75-1.07-.6-1-1-3,4.46-4.08,7.89-8.46,8-17-3.1-2.73-7.5-5.72-9-10,5.86-3.65,12.73-8.57,13-18-5-5-9.88-10.2-15-15,.63-1.75.19-1,1-2,1.12-2.87.17-1.84,3-3,2.65-1.6,7.22.11,11-1l7-4a172,172,0,0,0,1-19,14.27,14.27,0,0,1-6-9l17-6c.61-4.44,1.68-12-1-16-2.63-9-13.07-9.4-15-18,6.36-3.43,11.62-7.65,12-17-2.25-4.1,2.21-5,1-10-.75-3.08-2.88-4.48-3-10,5.26,0,7.93,1.07,12,2v-2a17.33,17.33,0,0,1-6-12h6c1.67-3.1,2.1-6.49,2-12-.8-1-.35-.27-1-2-2.48-1.49-6.46-3.09-9-5h2c1.88-2.17,2.22-1.2,3-5-3.59-5.11-.65-11.63,0-18,4.52-3.51,7.39-9.58,13-12,9-3.87,18,.85,28-1a42.27,42.27,0,0,1,8-11v-8c11.87.08,19.6-1.82,30-2-.64-12.21-7-10-4-22,.78-3.1-.28-6,1-8,2.87-8.41,12.16-13.54,21-16,3.06-.85,5.91.6,8-1,3-2.31,2.67-14.14,7-18,4.9-4.38,17.32-1.38,22-6,5.62-5.54,2.59-11.44,5-21,2.19-8.69,7.85-10.37,8-22-3-3.16-4.08-7.72-7-11-2.26-2.54-6.11-4-8-7-4.08-6.4-5.15-13.55-10-19-2.13-2.39-5.72-3.72-8-6-5.24-5.24-6.56-11.68-17-12-7.52,7.3-15.51,10.27-25,16-3.22,2-3.79,5.86-6,9-3.32,4.73-9.76,5.19-14,9-12,10.84-.73,13.07-27,13-9.51-6.66-18.1-9.65-26-18-18.76-.33-24.4,5.75-36,11l-9,2c-2.6,1.3-6.36,4.84-9,6l-13,2c-4.09,2.06-7.25,8.08-11,10-2.4,1.23-5.18-.54-7,1-1.65,1.4-2.16,4.66-4,6-5.06,3.68-11.08,5.27-16,9-6.42,4.86-1.93,9-5,14-1.83,3-10.57,9.85-14,11H437c-6.23,2.43-1.84,5.88-15,6-7.17-9.43-21.82-15.93-38-16-4,5.25-11.66,8.24-15,14-1.82,3.14.43,7.92-1,12-1.11,3.17-5.42,5.3-7,8-1.35,2.31.14,5-1,8-1.74,4.55-7.79,6.74-11,10H330c-1.59-3-2.08-5.72-2-11,1.31-1.87.7-4.72,2-7,3.7-6.48,15-10.57,21-15,8.76-6.42,15.46-16.29,22-25,2.65-3.53,7.47-6.4,10-10,3.47-4.93,2.43-11.78,5-18,4.54-11,12.22-23.55,17-34l5-15c4.77-9.61,23.06-44,13-60-6.19-17.4-27.23-2.34-39-11-2.89-3-3.15-6.84-3-13,3.25-4.11,2.93-7.36,10-8,14.05-8.4,39.89,12.82,47-6,7-12.07-13.43-42.73,12-43,3.66,5.55,4.19,11.66,4,22,2.56,3.89,2.57,9.1,5,13,3.36,5.4,8.65,8.62,13,13,22.46-.21,22-21.14,31-35,4.7-7.22,21.86-22.6,29-28,2.29-1.73,5.53-2.61,7-5,2.58-4.19.47-12.15,3-16,2.11-3.21,7.63-5.09,9-9,4.41-12.61-5.22-29.68-3-42,2.46-1.53,2.28-2.29,6-3,3.67,4.25,6.38,9.61,14,10,2.11-2,15.22-12.44,17-13,8.71-2.72,17.47-.12,26-3,3.5-1.18,5.77-5.88,9-7,7.92-2.74,16.08,3.46,23-1,12.75-8.22,3.83-33.18-4-39a237.88,237.88,0,0,1-20-17v-5c4.75-4.4,8.84-10,16-12,14-3.84,28.89,7.94,42,3,11.31-4.26,11.83-18.43,20-23l27-4c6.36-3.25,8.3-12,16-14,7.49-1.92,17.28,3.17,24-1,7.64-4.74,12.43-12.76,22-16,7.59-2.57,15.31-5.39,22-7,6.15-1.48,12.66,2.94,17,4,12.94,3.15,23.68-4.57,25-14l-3-8c-3.6-5.57-10.18-9.56-14-15-8-11.45-13.32-23.38-23-33-7.26-7.22-20.61-5.7-21-19,1.77-1,1.68-1.26,4-2,6-4.6,19.08-2.64,25,1,12.42,7.63,19.65,24.66,40,21,6.07-10.1,6.53-26.51,13-37,6.69-10.84,18.28-19.88,27-29a33.79,33.79,0,0,1,8,1,9.6,9.6,0,0,0,3,5c.36,5.21,1.63,8.42-1,12-3,8.2-14.34,11.08-19,18-7.84,11.65-7.14,41.28-4,57,19.48,12.46,47.63,11,73,5,15.09-23,6.11-45.43,8-74,10.8-6.82,25.5-3.72,39-8,3.9-1.24,9.78-5.69,15-5,10.18,1.34,24.47,13.1,33,16,6.15,2.09,16.7,0,22,1,2.18,8.87,8.16,19.88,16,23l14,2c4.38,1.85,6.62,5.17,13,6,5.11-5.62,11.89-13.69,22-14,5.45,5.11,14.85,2.07,22,6,9.37,5.15,8.85,24.09,19,28,2,1.88,3.84,2,8,2,4.09-7.1,5.87-10.41,18-10C1208.8,973.89,1208.81,973.3,1212,973Z" fill-rule="evenodd"/>
  </g>
  <g id="shadow_Imagen" data-name="shadow Imagen">
    <image id="shadow_Imagen-2" data-name="shadow Imagen" width="2111" height="2835" transform="translate(313 888)" xlink:href="IMGs/flower41.png"/>
  </g>
</svg>
