<svg xmlns="http://www.w3.org/2000/svg" class="posterSVG_part small unclickable hide" data-type="flower" data-feature="flower5" xmlns:xlink="http://www.w3.org/1999/xlink" viewBox="0 0 2848 4288">
  <g id="stem" class="g-to-color" style="isolation: isolate">
    <path d="M2042,2026c10.4.13,11.86,5.38,18,9,3.62,2.13,8,1.48,11,4,5.67,4.73,10.86,12,17,16,8.28,5.36,21.75,9.05,23,21,2.28,3.84-.74,11,1,16s8.66,10.31,10,16c.7,3-1.73,3.64-2,5-.85,4.36,3.14,12.92,5,16,4.91,8.1,13.6,12.69,19,20,6.59,8.92,10.83,18.18,17,28,9.88,15.7,25.05,30.2,24,54-21.18,12.42-56-2.21-74-14-9.74-6.36-17.62-16-34-13-6.58,11.14-2.46,16.38-6,30-5.09,19.58-11.87,56.46-34,58-4.91-8.77-8.28-18.07-14-26-5.36-7.43-13.26-13.93-19-21-5.36-6.6-6.16-15.79-11-23-6.21-9.26-24.64-11.8-26-22-3.93-6.51-2.54-17.68-5-26-.85-2.87-4-7.13-5-10-3.77-10.5-3.25-21.4-8-31-3.36-6.78-6.94-18.28-12-24s-10.28-6.37-11-17c10.15-6.1,21-1.76,32-6,2.53-1,3.88-5,6-6h6c2.67-.86,5.73-4,8-5,6.3-2.83,12.45-2.52,18-6,2.5-1.57,4.5-5.56,7-7C2022.45,2050.79,2028.29,2042.19,2042,2026Z
    
    M1694,2176c12.77,1.69,19.31,12,27,19,8.13,7.38,19.91,10.61,28,18,12.69,11.6,20.57,27.07,32,40,5.77,6.53,16.78,14.62,18,25,2.73,4.42-1.4,16.88-3,22-5.68,18.23-11.32,38.79-18,56q-5.51,16.5-11,33c-9.72,22.2-24.09,44.47-34,67-4.82,11-7.8,22.77-14,33-3.52,5.81-7.86,12.75-11,19-.67,2.33-1.33,4.67-2,7-.83,1.22-3.34,1.4-4,3-1.21,2.91.41,5.74-1,8l-6,5c-.67,3-1.33,6-2,9-4.33,10.42-11.45,12.29-12,29,27.67,17.18,38.54-16.07,61-11,11.15,2.51,25.92,3.25,37,6h20c3.49,1.11,7.91,5.24,14,4,10.38-2.11,16.63-5.76,26-8,18.28-4.38,22.87,8.95,40,9,5.94-9.11,15.76-15.37,22-24,2.13-2.95,2-5.68,4-9,4.6-7.8,13.79-12.86,19-20,3.44-4.71,5.55-9.4,9-14,6-8.06,16.15-13.9,22-22,3-4.09,4-9,7-13l10-9c10.53-10.53,21.35-20.57,32-31,9.85-9.65,18.94-21.71,31-29,5.4-3.26,17.61,1.27,23-2,11.76-7.12,21.92-24.53,34-30l18-4c5.7-2.38,11.18-7.63,17-10l11-1c6.94-1.79,16-5.25,23-7l28,1c6.24-1.7,13.85-4.41,21-7a472,472,0,0,1,51-15l34-1c5-1.1,10.36-3.85,14-5,16.71-5.28,28.34,6.77,46,3,21.54-4.6,64-9.42,86-1,5.66,2.17,9.79,8.61,15,11l35,3c2.26-.19,4.74-2,8-1,11.86,3.66,18.58,16.93,30,22l34,3c13.61,3.58,24.54,14.91,37,20l25,6c8.51,3.62,14.2,10.86,21,16,6.2,4.69,12.86,7.08,13,18-2.08,3.28.14,9.37-1,14-2,8-14.44,17.74-8,27,3.57,10.17,19.21,10.8,25,19,3.83,5.42,3.46,12.12,6,19,2.05,5.57,6.27,13.34,8,19,3.35,11-3.94,18.53,0,28,7.08,17,20.2,31.88,28,48,6.67,13.78,6.59,31.71,12,46,3.71,9.8,11.43,12.6,12,26h-1v1h-2c-4.08-5.9-10.22-8.76-16-13-8.47-6.22-16.38-14.89-26-20-11.42-6.07-24.12-6.77-37-12-6.77-2.75-14.16-7.46-21-10-8.26-3.08-16.26-1.86-25-5-7.81-2.8-15.36-9.19-24-12-12.51-4.06-25.33-2.34-37-6-5.88-1.84-13.52-5.34-20-7l-20-2c-10.09-4.75-3.32-11.85-24-12-3,2.86-7.56,4.63-10,8-2.59,3.59-3.51,10.43-7,13l-6,1c-8.16,3.27-19.12,10.21-24,17-6.35,8.83-5.21,28.65-14,35-5.7,4.12-14.46,3.63-21,7-15.35,7.9-33.7,17.1-50,24-7.5,3.17-20.33,4.35-27,8-4.18,2.29-7.19,8.22-11,11a85.23,85.23,0,0,1-21,11c-8.06,2.66-19.15,3-25,4-15.6,2.67-36.66,6.6-51,11-9.19,2.82-20.27,1.09-29,3l-45-1c-13.37,3.15-30.12,6.75-44,10-12.73,3-42,.28-52-2l-32-1c-14.94-3.17-33.08-2-50-2l-33-1c-7.59,2.23-14.18,8.8-23,11l-53,1c-6.5,1.44-16.68,3.53-24,2-6.86-1.43-18.72-4.88-27-3-29.46,6.7-49.14,23.67-70,39-10.82,7.95-35,16.66-35,34a19.17,19.17,0,0,1,2,4,17.82,17.82,0,0,1,4,3c29.59.91,34.46-10,56-17,11.6-3.79,24.07,1.67,35-1,14-3.43,38.29-8.69,56-3,6.49,2.09,26.87,18.58,30,24,3,5.23,1.75,13.11,5,18,6.8,10.22,21.39,15.64,27,27,4,8.13,3.91,22.6,8,30,2.45,4.43,8.42,8.42,12,12,10.53,10.53,19.91,20.89,32,30,5.33,4,8.94,10.62,13,16,9.48,12.58,25.84,23.29,35,36,2.1,2.92,2.33,6.7,5,9a15.61,15.61,0,0,0-1,5c-2.67.92-6.93,1.05-11,1-4.9-3.64-12.74-2.5-19-5-8.24-3.29-16.92-8.59-25-12l-9-2c-15-6.58-20.08-19.15-32-27-5.24-3.45-16.89-5.55-24-4-10.24,2.23-19.07,6.5-28,9-6.4,1.79-11.67-.15-17,2-6,2.44-10.64,9.46-14,11h-21c-6,3.72-23.57.58-30,0l-64-2c-5.91-1.82-11.65-5.45-19-7-14.45-3.05-17.31,9-32,9-8.41-10.89-22.45-18.12-33-27-6.63-5.58-10.13-15.75-17-21s-15.13-5.44-23-10c-7.53-4.36-5.48-10.73-19-11-2.35,1.83-5.13,1.33-8,3-5.45,3.18-9.94,11.12-14,16-5.72,6.86-14.64,11.85-20,19-5.94,7.92-11,16-17,24-8.91,11.84-22.16,19.78-26,37-2.2,9.87,4.79,17.87,8,23,7.57,12.12,17.28,22.52,24,35,6.06,11.25,15.72,29.06,19,41,3.48,12.64-3,24.29,0,36,1.29,5.11,5.37,8.92,7,13,4,9.89,7,27.77,8,39,13.94,8.79,44.08,20.78,45,41-4.67,3.52-7.9,9.9-8,18,4.49,6.64,10.46,28.35,17,31,1.18.8,1.68.77,4,1,2.55-3.26,14.79-16.26,18-18,2.53-1.37,4.78-.5,7-2,3.41-2.3,4.9-7.5,8-10,1.86-1.5,3.81-.65,6-2,7.33-4.52,15.6-16.92,21-24,4.34-5.7,12.53-9.29,17-15,3.87-4.94,6.88-11.44,12-15,2.87-2,6.34,0,10-2l3-5c7.69-4.47,23.36-3.41,32-7,9.5-3.94,17.07-14.68,27-18s20,2.6,30,0c4.7-1.23,10.46-4.77,15-6,13-3.51,33.77,5.42,37,12,.75,1.07.6.95,1,3-4.9,3.11-10.48,7.56-16,10-2.73,1.2-4.71.49-7,2-14.83,9.81-25.27,25.92-38,38,0,9.89,2.69,21.32,7,28,2.89,4.48,5.5,2.89,6,11q-4,8-8,16c-9,12.71-31.84,20.51-13,39-.63,1.75-.19,1-1,2-5.64,6.79-17.75,8.81-25,14-10.76,7.7-20.68,18.07-32,25-6.71,4.11-17.27,4.78-23,10-2.78,2.53-3,8.89-6,11l-10,2c-3.18,1.51-7.11,4.88-11,6-6.94,2-10.7.82-16,4l-6,8c.12,18.23-.64,26.7-4,40q.49,6.49,1,13-4,8-8,16c-4,13.87,7.7,22.21,4,36-2.07,7.72-7.48,12.37-6,21,16,4.82,23.18,18.16,36,26v2c-10,2.67-15.93,18-23,25-6.67,6.65-15.09,9.37-23,15-3.2,2.28-5.8,6.79-9,9-3.71,2.57-7.41,3.38-11,6l-13,14c-8,5.94-18.75,7.93-27,14-7.6,5.59-11.32,19.42-17,27-5.51,7.35-14.77,13.26-22,19l-4,6c-2.6,2.66-5.94,3.72-9,6-4.43,3.31-7.07,9.13-11,13s-9.5,5.73-14,9c-2.82,2.05-4.8,6.28-8,8-4.65,2.5-9.44,2.6-13,6-4.24,4-7.84,8.84-13,12-9.07,5.55-19.38,7.31-28,13-12.82,8.46-24.94,20.51-36,31,4.7,10.59,1.56,21.37,2,35,.41,12.45,1,28,1,42v13c-.66,2-3.32,5.2-4,8-1.48,6.08,1.42,13.08-1,18-1.47,3-6.2,5.3-8,8s-4,9.21-5,12q-1,6-2,12c-1.88,3.82-5.56,9.38-7,14-.33,3-.67,6-1,9-.84,1.83-4.23,3.95-5,6-.89,2.37,0,4.46-1,6-5.57,3.45-34.9,1-44,1H1221c-3.24-5.94-9.69-8.76-12-14s.58-12.67-1-19c-1.66-6.67-5.42-12.66-7-19-2.83-11.32,2.29-21.58,4-29q-1-16.5-2-33c-3.56-13.08-10.76-26.44-16-38q-1-6.49-2-13a128.71,128.71,0,0,0-12-25c-5.45-9-15.69-35.19-23-40l-11-3q-2.51-12.49-5-25c-1.41-3.27-4.86-6.31-6-10q-1-8.51-2-17c-3.24-9.65-7.12-22.16-12-31-.94-1.7-3.92-2.54-5-4-2.8-3.78-3.31-8.13-6-12-4.84-7-14-12-19-19-5.42-7.62-9.4-20.55-13-29-15-35.36-20.77-77.65-32-116-3.1-10.6-2-22-6-32-3.87-9.69-12.13-17.63-15-27s.22-20.56-1-30c-.64-5-4.54-9.65-6-14-.33-2.67-.67-5.33-1-8-3.65-9.54-14-11.75-19-20,3.16,0,1.34,1.69,3-1-5.35-1.85-8.62-7.19-13-10l-11-3c-6.34-4-8.12-13.86-14-18s-13.13-5.21-18-10c-12.31-12.12-19.94-27.47-36-36-4.65-2.47-11.77-7.83-15-9l-15-1c-4.13-1.2-15.08-7.27-17-11-1.54-2.76,1.52-4.65-2-7-6.86-6.05-19.46-5.69-27-11s-13-29.83-19-39l-16-15-3-8c-3.76-6-9.51-11.95-14-18-4.26-5.74-11.89-9.32-16-15,9.93-5.33,18.08-12.37,27-19l6-7c5.85-3.46,11.5-4.28,17-8,2.76-1.86,4.5-5.61,8-7,9-3.59,21.87-3.86,32-6,1.22-2.28,1.64-2.25,2-6-12.69-14.93-6.47-44-1-62,4-13.09,6.63-23.4,13-34,3.79-6.31,10.73-10.35,15-16,10.69-14.14,24.54-31,41-39,8.36-4,17.47.23,25-1,2.67-5.06,1.84-24.74,6-27v-1h1v1c6.38,2.39,5.26,9.53,11,12,1.07.75,1,.6,3,1,9.8-15.12,28.7-66.15,19-93-6.45-17.86-21.12-34.63-36-44-6.79-4.27-17.84-7-26-9-6.21-1.51-15.35,1.85-20-1-8-2.84-27.75-23.3-30-32-2.9-11.24,1.63-22.07-4-30-3.79-5.34-10.9-4.27-12-13-5.49-7.44,2.65-23.12,4-31,.72-4.23-1.35-7.55,1-12,2-3.75,7.49-7.07,9-11,2.16-5.64-.2-10.82,2-14,1.75-2.53,6.63-2.11,11-2,3.21-1.16,14.81,3.73,20,5,7.44,1.83,12.28-2.86,18-1,10.4,3.38,18.61,13.53,27,19,4.42,2.88,10.64,4.72,16,6,5.61,1.34,10.83-.52,15,2,4.85,2.93,9,9.21,14,12,6.23,3.48,12.83,3.42,19,7,9.22,5.34,19.67,13.12,30,17,5.55,2.09,10.49.56,16,3,9.24,4.09,14.12,16.14,23,20,31,13.45,69.25-14.06,75-35,5-18-4.5-35.27-8-46-3-9.24.23-20.09-3-30-2.64-8.1-9.9-14.16-11-24,11.51-5.27,22-14.63,35-19v3c-4.1,6.72,5.07,19.7,7,25,5.67,15.59,6.36,31.61,14,45,3.28,5.75,11.36,8.45,16,13,7.35.08,11-2.52,16-3,2.39-.23,7.24,2.54,9,3,7.25,1.9,15.63-4.55,18-8,5.85-8.5,3.88-25.92,4-40,.13-15.49,0-37.42,0-56v-24c-1.43-5-5.35-8.33-7-13h13c5.35,5.19,12.73,7.67,23,8,2.6-9.57,12.87-12,23-14v2c6.55,7.7.1,44.37,3,58,2.18,10.25.35,25.66,0,36q-.49,41.49-1,83v34c5.16,20.6,32.19,20.76,51,28,16.39,6.31,24.51,21.63,35,34,4.09,4.82,10,4.64,11,13,6.11,8.18-6.62,20.86-9,29q.49,10.5,1,21c-1.23,3.76-26.55,31.2-30,33-12.77,6.67-43.87,2-46,19-2.86,4.32-.53,15,1,19,1.9,5,4.92,5,7,8,6,8.62,12.48,20.79,17,30,3.47,7.06.42,16.32,6,21,2.07,1.66,4.16,1.91,8,2,14.59-14.68,48-11.28,72-14,1.58-2.51,4.46-3.75,6-6,9.26-13.52,15-28.2,23-43,7.66-14.2,19-29,26-44,3.77-8.06,1.43-15.95,4-26,1.86-7.28,6-14.28,8-21,3.69-12.49,4.34-20.35,10-30,10.7-18.24,32.11-27.34,43-45,8.31-13.48,6.15-36.59,15-50,4.56-6.91,13.52-11.8,19-18,3.28-3.71,4-11.1,8-14l8-2c2.3-1.71,2.35-6.5,5-8,6.06-3.43,11.71-1.24,16-6,6.87-7.61,10.08-24.15,16-33,2.24-3.36,7.53-5.91,9-10v-8c1.12-3.12,4.84-8.63,7-12s6.7-6.54,9-10c6.84-10.29,11.23-23.74,19-33,3-3.62,7.93-7.56,10-12,.67-3,1.33-6,2-9,4.08-6.4,10.8-13.61,15-20,2.16-3.29.76-9.49,3-13,1.78-2.79,6.37-4.79,8-8q1-5.51,2-11c5.58-15.48,10.73-35.3,15-52v-36c-3.61-11.17-9.7-21.51-10-37,6.15-2.24,11.34-4.18,12-12,.68-1.21,2.39-24.26,1-30-4.24-17.49-9.82-42.42-16-59-2.3-6.17-2.37-12.36-7-16-1.9-.93-1.17-.38-4,0C1711.13,2199.27,1689.67,2185.3,1694,2176Z
    
    M1107,2388c13.93,2.71,15.76,14.13,25,21,1.13.84,3.12.28,4,1-6.22,8.72-.25,17.1-4,28-.94,2.72-5.07,5.28-6,8v12c-1.5,4.62-6.58,9.11-8,14-2.14,7.39-.84,13.28-3,19h-2c-2-5.36-9.25-7-12-12-.33-2.33-.67-4.67-1-7-2.63-6-6.82-15.07-9-21-2.92-8-.48-10.61-3-19-1.62-5.41-5.88-9-7-14C1086.22,2414.56,1105.81,2394.48,1107,2388Z
    
    M1837,2597c-5.83,5.22-20.75,9.8-28,15-19.62,14.07-36,34-53,51-15.67,15.67-32.69,28.86-46,47-9.17,12.5-29.44,36.33-30,56,4.71,3.12,6.82,5.82,15,6,9.88-12.76,24.5-22.7,36-34,6.25-6.14,11-14.7,18-20,15.34-11.59,29.09-27,41-42,7.13-9,17.87-14.56,25-24,9.62-12.74,38.65-32.46,39-51a11.55,11.55,0,0,1-2-3A127.34,127.34,0,0,0,1837,2597Z" fill-rule="evenodd"/>
  </g>
  <g id="petals" class="g-to-color" style="isolation: isolate">
    <path d="M1936,2391c.17,1.6,2,5,2,5-1.62,2.66-2.38-.8-3,5,2,1.4,2.07,1.35,3,4-3,2.37-5.22,6.35-9,8-15.4,6.72-37.46-12.19-43-22-9.07-16.06-17.08-34.25-28-49-3-4-8.6-6.32-12-10-9.72-10.51-17.45-22.28-26-34-4.18-5.72-11.49-9.66-16-15-7.25-8.58-11.53-19.54-19-28-.82-.93-3.16-1.08-4-2-2.63-2.89-3.39-7.05-6-10-2.13-2.41-6.31-4.22-8-7-1.92-3.16-1.68-6.38-4-9-2.12-2.39-5.72-3.73-8-6-12.23-12.21-26.84-21.68-41-32-4.33-3.15-11-13.1-18-10-3.24,1.27-2.63.88-3,5,4.58,3.22,20.83,22,18,28-.33,1-.67,2-1,3-5.12.33-9.09.12-14,2-.56,4.51.48,12.58-1,18-1,3.6-5.53,8.2-4,14,1.42,5.37,6.62,9.68,9,14,5.34,9.68,9.93,21,14,31,3.57,8.72,2.71,17.78,6,27,1.23,3.44,4.93,8,6,11,2.27,6.26-.16,11.38,2,18,1.6,4.9,6.42,13.1,8,18v36c-4.14,15.91-9.53,34.63-14,50v14c-1.16,3.25-5,4.67-7,7-5.71,6.5-7.42,15.32-12,23-2,3.37-6.81,6.64-9,10-2.07,3.17-1,6.32-3,10s-7.61,6.45-10,10c-6.54,9.71-10.1,19.9-16,30-5,8.58-15.55,16.14-19,26v11c-1.5,3.05-7.93,5.8-10,9l-3,10c-9,15.44-18,31.1-22,49-6.51,3.18-9,1.81-17,1,.2-9.49,6.78-22.46,4-30-1-2.72-4.11-8.63-5-12v-22c-2.55-8.94-22.62-36.74-30-40h-13c-3.57-2.3-12.18-2.91-17-3-4.08,6.38-14,17-23,18-7.82-5.8-27.5-4.4-37-9a469.92,469.92,0,0,1-63-37c-21.27-14.73-41.46-45.91-54-70-3.87-7.43-3-20.49-8-27-1.07-.75-1-.6-3-1-8.06,13.13-18,26.21-26,39-4.78,7.61-7.92,16-15,21-3.73,2.64-8.48,1.77-13,4-5.87,2.9-7.25,10.28-15,11-2-1.29-5.06,0-8-1-5.65-1.9-19.19-13.12-32-6-5.57,3.1-9.51,11.55-15,15-9.72,6.1-18.86,11.34-28,18-3.77,2.75-7,7.31-11,10-4.26,2.83-8.91,4-13,7l-7,8c-3.82,2.43-8.84,1.8-13,4-3.87,2-6.87,7.29-11,9l-7,1c-.9.37-3.09,2.7-4,3h-9c-2.18.78-3.84,4.16-6,5l-9,1c-5.64,2.83-11.39,10.22-17,13-4.72,2.34-9.33.65-15,2-14.53,3.46-53,3.49-68-2-4.21-1.54-7.56-5.9-11-8-5.69-3.47-12.32-2.85-18-6-8-4.42-14.55-12.83-21-19,.19-4.6.5-5.66,4-7,9.73-6,29.71,4.52,42,2,8.56-1.76,21.61.75,33-2,16.82-4.07,35.63-7.56,50-15,13.58-7,24.36-22.84,29-39,2.48-8.65.25-17.24,4-25,2.42-5,9.17-10.41,11-16v-12c.93-2.71,5.08-5.28,6-8v-20c3.4-13.25,9.34-28.19,14-41,.33-3.67.67-7.33,1-11,2.48-8.42,6.11-22.9,9-31v-12c2.28-10.53,5.2-43.11,0-50-2.64-1.75-9.69-1.13-14-1-2.44,2.52-4.66,3.16-6,7-5,6.8-.89,21.4-3,31-4.7,21.42-6.36,42.75-15,60-20.36,40.63-56.85,68.58-101,85-13.18,4.9-26.17,4.4-39,9-3.7,1.33-8.46,4.69-12,6l-12,2c-6.62,2.48-14.81,8.95-22,11-11.7,3.33-22-3.52-31-4q-.5-6.49-1-13c-3.56-10-4-24-4-39v-21c-1.12-2.94-3-3.54-7-4-2.77,3-7.56,4.81-10,8-12.62,16.54-25,33.95-37,51-7.4,10.52-24.5,34.35-36,39-23.22,9.4-50.37-2.14-74,3-10.9,2.37-47.86,12.08-59,5-8.75-3-33.17-28.72-36-38v-14c0-9.26.33-19.6,2-26v-21c.73-3.34,2-11.1,1-16-5.43-25.9,8.16-42.44,13-60,2.75-10-3.38-18.33-5-25q1-41.49,2-83c3.19-14.41,3.71-29,8-42,6.62-20,16.88-36.27,20-60-2.45-.85-6.18-1-10-1-4,3.56-9.45,1.47-15,4-1.08.49-2.93,3.46-4,4l-10,2c-2,1-3.88,4.92-6,6l-10,2c-9,4.5-18.6,11.82-27,17l-6,1-2,3c-6.45,4-12.35,5.23-19,9-4,2.28-7.93,7.65-12,10-2.59,1.49-4.36.57-7,2-9.93,5.36-19.61,15.09-26,24-6.66,9.29-8.67,20.24-14,31-7.55,15.23-18.54,28.54-30,40-6.47,6.47-10.4,15.68-23,16-16.8-26.21-13.46-57-12-98,.38-10.76,3.84-21.19,6-29v-15l2-2v-11c2-8.23,1.65-18.31,4-28,6.31-26.06,10.86-54.85,22-77,4.85-9.64,11.42-20.19,17-30,1.87-3.28,6.31-6.64,8-10,.67-3.33,1.33-6.67,2-10,4.58-8.12,13.5-10.78,14-23l-26-28c-9.49-7.13-20-12.37-27-22-5.25-7.21-14.54-13.08-14-23,20-12.16,32.71-29.86,51-43,7-5,19-8.28,21-18-11.36-6.62-26-9.54-37-17-3.71-2.5-7-7.57-10-11-4.6-5.34-11.81-9.32-16-15-1.15-1.55-.75-3.56-2-5-2.58-3-7.36-5-10-8-5.79-6.47-8.84-14.85-14-22-4.62-6.41-10.66-13.2-15-20-6.62-10.36-7.31-25.58-13-37-.76-1.52-4.16-3.4-5-5-1.52-2.89-.69-5-2-8-3.52-8.1-9.14-17.27-13-25-2.29-4.59-1.58-9.2-4-14-10.69-21.2-38.94-55.4-33-88,3.49-2.12,4.26-3.69,10-4,4-2.52,15.89-.9,20,0,14.13,3.1,24.68,3.33,36,9,4.55,2.28,14.08,11.19,23,8,2.52-.9,10.37-11.56,13-14v-20c7.45-25.07,29.25-43.84,48-58l17-18c7.27-5.31,14.61-11.46,22-16,2.31-1.42,4.42-.63,7-2,7.71-4.09,16.41-11.76,25-15,10.63-4,20.64-.44,21-15-10.35-10.78-18-27.23-22-44v-16c0-10.6-.16-22.21-2-30v-14c-2.93-12-7.81-29.8-2-43,3.5-8,20.43-17.2,29-20,7.84-2.57,24.37-2.83,34-2,2.39.2,3.71,1.61,7,1,38.58-7.11,75.43,5.09,97,19,11.52,7.43,24.59,29.4,40,30,12-8.29,31.16-6.13,48-10,19.07-4.38,40-5.81,64-6l1-3c1.32-2.28.59-14.13-1-18-7.16-17.46-8.34-38.66-14-58-6.76-23.08-9.26-48.46-15-72q-.5-15.49-1-31c-.27-.85-2.73-3.15-3-4v-25q-1-16-2-32V995c-1-4-.32-12.21-2-18-1.84-6.3-5.49-12.92-6-22,2.54-1.37,3.5-1.92,8-2,8.82-5.44,27.67,5,36,0,7.65-2.86,9.83-11.62,15-17,8.5-8.86,18.85-12.92,32-17,15.45-4.8,42.42,7.2,52,11,15,5.93,35.77,13.31,48,22l5,6c8.5,6.2,16.59,11.69,25,18l10,11c12,8.51,22.46,16.23,31,28,15.93,22,30.42,44.3,45,68,5,8.13,4.85,25.1,17,26,5.45-4.66,14.7,1.08,22-2,5.37-2.27,18.92-15.2,22-20,2.48-3.87,4-44.51,4-52,0-6.72-1.54-18.75,3-21h14c1,.8.27.35,2,1,4.24,7.59,7.38,17.41,11,26,1.75-.63,1-.19,2-1,8.36-1.66,20-18.22,26-24-.64-14.76-18.93-33.53-24-48-10.78-30.8-.84-63.75,11-84,5.9-10.08,8.37-21.7,24-22,4.34,3.34,8.16,1.28,15,3l24,9c8.77,5.33,18,12.78,27,18,13.53,7.84,27.57,12.37,40,21,9.66,6.7,17.7,17.7,26,26l14,13c5.63,7.79,6.81,17.33,12,26l27,26c5.72,5.75,6.9,14.48,18,15,8-14.25,10.87-30.33,16-48,1.78-6.12,6.21-13.12,8-19,.33-3,.67-6,1-9,2-4.32,6.47-9.19,8-14,3.91-12.32.71-26.37,5-38,2.36-6.4,9.08-11.9,13-17,10.42,5.13,16.25,15.52,20,27,1.63,5-.16,8.37,2,12,3.33,5.59,9.54,8.94,13,14,14.7,21.51,27.46,44.16,64,44,1.51-2.81,2-5,2-10-3.33-4.4-3-11.07-6-16-6.11-10-15.92-22.65-17-37a10.92,10.92,0,0,0,3-2c13.18,5.38,17.15,12.66,27,19l9,2a166.75,166.75,0,0,1,17,10l6,7c11.75,8.86,29.27,24.59,37,37,5.25,8.42,6.38,16.76,11,26,1.73,3.46,6.36,6.93,8,11,8.62,21.46,18.78,45.41,25,69,2.12,8,0,13.48,2,22,.9,3.79,3.12,9.41,4,13,2.1,8.56-.6,20.6,1,28,3.38,15.66-2.77,31.71,0,46h2c5,3,34.07-7.3,41-9h43c6.61,1.88,16.92,6.12,24,8h14c18.16,0,30.74-2,49-2h14c2.9,1,5.55,4.68,8,6,3.69,2,7.62,2,10,5,5.17,6.59,2.08,29.42,2,40-8.32,11.72-9,44-9,64,5.06,3.82,8.86,10.41,14,14,10.8,7.54,20.35,14.36,31,22,3.38,2.42,6.46,8.07,10,10,10.3,5.61,31.54-5,46-1,23.93,6.64,58.29,38.71,52,69a14.17,14.17,0,0,1-4,1c-4.15-5.89-13.1-8.78-19-13-7.08-5.07-15.92-12.15-24-16l-6-1c-5.16-3-10.76-8.2-17-10-34.91-10-87.71,8.17-108,21v2h4c4.77,2.76,24.91-3,34-3,26.9-.08,84.07,6.67,91,24,2.4,3.76.69,37.14-1,43-6,20.71-11.41,41.42-21,59-6.16,11.29-21.48,24-22,39,6.67,4,12.18,2.76,19,6,16.06,7.61,31.83,17.85,46,28,25.31,18.13,42.93,45.43,68,64,9.31,6.89,25.53,16,32,25,2.06,2.88,4.58,9.78,2,14-2.74,4.48-13.53,9.52-19,11h-7c-19.27,7.36-34.54,9.65-63,9-11.85-.27-30.41-5.13-40,2-1.86,3-.79,11.56-1,16h-2c-3.24,2.08-8.29,1.13-12,3-5,2.5-10.41,7.84-16,10-7.08,2.74-15.46,3.33-23,5-21.48,4.75-51.08-3.89-66,7,.67,2.33,1.33,4.67,2,7,4,1.27,10.77-.19,16,1s9.7,3.83,14,5c5.6,1.53,9.2,0,14,2,3.75,1.59,8.52,5.43,12,7,8.13,3.65,15.94,3.67,23,8,3.24,2,6.63,6.28,10,8l7,1c2.56,1.28,5.34,5.61,8,7l6,1c12.34,7,22.56,20.68,32,31,8.61,9.41,22.51,21.15,29,32,11.21,18.74,19.21,41.66,26,64,2.66,8.75-.41,16.28,2,26,1.83,7.37,5.83,18.5,8,25v9c3.48,14,6.28,32.76,10,47v36c-1.77,8-4,13.47-4,24-1.83,1.28-1.71,2-4,3-6.81,6.15-24.38-2.95-32-4-1.66-6.7-7.14-10.59-9-16v-16c-1.91-6.45-7.8-9.76-12-14-3.4.82-7.16,2.7-10,1-11.88-4.18-5.92-9.83-11-17-.77-1.09-11.7-9.46-13-10l-6-1c-3.51-2-9.16-8.26-16-4-5.63,1.84-27.83,22.86-33,28-2.19,2.18-4.27,6.57-7,8-8.28,4.32-16.87,4-25,8-8.61,4.27-16.41,10.39-27,13h-22l-8,3a15.61,15.61,0,0,0-1,5c14.74,9.59,23.6,24.16,30,42,3.26,9.09,2.67,16.94,6,26,1.1,3,4.09,6.57,5,10,2.67,10.08,1,16,4,26,1.32,4.39,4.92,5.88,6,11-4.5,4.29-3.36,31-2,40,4.72,31.27,5,64.68,5,101,0,12.94,3.9,41.51-5,46-1.46.93-10.42,2.67-14,1l-4-5C1947.3,2391,1941.12,2390.68,1936,2391Z" fill-rule="evenodd"/>
  </g>
  <g id="shadow_Imagen" data-name="shadow Imagen">
    <image id="shadow_Imagen-2" data-name="shadow Imagen" width="2401" height="3113" transform="translate(340 855)" xlink:href="IMGs/flower51.png" style="opacity:0.5"/>
  </g>
</svg>
