<svg xmlns="http://www.w3.org/2000/svg" class="posterSVG_part small unclickable hide" data-type="flower" data-feature="flower1" xmlns:xlink="http://www.w3.org/1999/xlink" viewBox="0 0 2848 4288">
  <g id="stem" class="g-to-color" style="isolation: isolate">
    <path d="M1333,728c18.73,1,21.39,22.4,29,35,2.51,4.16,5.86,7.07,8,12,3.35-.21,2.4-2.15,4,1,3.75,5.06,10.25,20.87,12,27v10c2.65,7.91,10,16,14,23-.33,1-.67,2-1,3,1.06,1.94,5,4,6,6,1.19,2.4-.61,5.25,1,7,3,3.27,8.4,4.18,11,8,3,4.44,2.92,10.53,6,15,2.36,3.43,7.69,5.29,10,9s1.92,8.87,4,13l4,3c4.71,7,7.87,16,12,23h2c.44-1.15,1.15-4.7,2-2,3.51,2.68,11.53,15.27,10,19-3,11.72-15,17.12-22,25s-13,20.4-18,30c-3.46,6.69-2.81,14-6,21a530.54,530.54,0,0,0-29,82c-2.65,10.17.52,17.79-2,28-3.32,13.46-4,29.24-4,47v15c8,31.92,11.1,68.12,18,100-2.2,1.66-2,2.84-5,4-1.07.75-1,.6-3,1-3-4.06-7.51-6.46-11-10-3.18-3.23-4.31-7.14-7-11-3.15-4.51-9.31-7-13-11-5.52-6-8.56-13.89-14-20-.86-1-3.07-1.06-4-2-4.87-4.93-9.37-10.92-14-16-8.36-9.18-12.55-24-22-32-3.26-2.77-10.74-1.23-14-4-3.82-3.24-6.25-8.66-10-12-2.94-2.61-7.12-3.37-10-6-3-2.78-4.92-7.26-8-10s-7.4-3.53-11-6c-1.94-1.33-3.23-4.48-5-6-7.31-6.27-25.79-16.14-29-25,3.48-5.17,6.27-23.5,8-30v-8c2.49-6.47,5.79-16.18,8-23q.49-6,1-12c1.18-3.49,5.17-7.28,6-11,.68-3-1.65-5-1-8,.4-1.88,2.87-3.82,2-8-.64-3-2.9-9-2-13,1-4.46,3.71-7.86,5-12-2-1.4-2.07-1.35-3-4,6.28-4.69,6.18-20,9-28,1.5-4.27,5.21-7.54,7-11,.67-3,1.33-6,2-9l4-3c-.33-2.33-.67-4.67-1-7,.67-2.17,4.19-3.87,5-6q.49-7.5,1-15c1.35-4.07,4.18-13.31,7-17,.55-.72,3.63-.44,4-1-.33-1.67-.67-3.33-1-5,.42-1.13,3.48-4.87,4-6v-4c6.12-12.57,16.09-23.26,21-35q2-10.5,4-21c1-2.8,3.9-5.43,5-8,2.44-5.68.88-10.44,3-17C1328.9,778.6,1333.08,758,1333,728Z
    
    M1278,914v2h1C1278.37,914.25,1278.81,915,1278,914Z
    
    M377,2969c2.08-.37,1.92-.24,3-1,8.87-3.8,16.85-17.6,24-24,2.6-2.33,5.81-2.12,9-4,3-1.75,5.26-6,8-8,3.93-2.89,10-5.65,14-8,1.78-1.06,6.11.38,8-1,3.26-2.38,2.84-10.36,6-13,1.75-1.46,9-2,9-2s2.63-7.34,5-9c4.32-3,8.64-3.78,13-7,1.27-.93,1.88-3.8,3-5,6-6.42,21.67-22.28,32-23,21.63,22.8,46.26,41.14,75,57,8.32,4.59,12,12.92,24,14,6-4.06,14.29-3.36,21-7,9.52-5.16,19.39-12.31,28-18,2.89-1.91,6.45-1.83,9-4,9.21-7.85,17-17.85,27-25,3.69-2.63,9-2.26,13-5,3.2-2.21,4.41-7.84,8-10,18.24-11,36.24-19.77,54-31,16.87-10.66,32.89-24.21,50-35,8.66-5.47,17.69-8,27-13,33.26-17.73,67.45-37.6,103-53,52.13-22.58,109-36.85,165-55,14.26-4.62,29.34-2.73,45-7,11.17-3.05,21.57-7.77,33-12,37.1-13.74,79.67-18.29,122-28,12-2.76,25.43-.42,37-3h18c13.16-2.92,33-6,48-2,7.47,2,15.64-1.44,21,2,8.58,3.12,10.31,13,16,19s15.42,8.18,20,15c3.54,5.28,3.08,10.86,6,17,3.73,7.83,11.55,7.29,17,11,1.74,1.18,2.34,5,4,6,5.54,3.46,12.93,1.11,20,3,4,1.07,6.56,4.89,10,6h18c9.78,3.35,18.92,21.31,28,27,12.88,8.07,85.63,10.72,106,5,4.69-1.32,7.39-5.16,11-7,4.85-2.47,6.71-.32,11-2,2.84-1.11,4.73-4.78,7-6,1-.51,5.11-.62,6-1,6.43-2.74,7.78-9.05,17-10,7.16,10.17,25.19,13.34,36,20,3.6,2.22,6.73,6.94,10,9l17,4c8.93,4.63,16.48,6.86,30,14,4,2.11,8.2,6.86,12,9,9.1,5.13,18.89,5.73,28,11,7.71,4.46,15,14.16,22,19,5.78,4,11.36,6.05,17,10l11,12c16.88,11.77,33.19,23.22,50,35,6.47,4.53,10.5,13.46,17,18,22.13,15.45,40.71,35.05,63,50,3.12,2.09,6.79,2,10,4,2.3,1.41,4.83,4.58,7,6,11.15,7.29,23.24,9.09,37,14,6.41,2.29,13.9,7.4,20,10,5.5,2.34,11.14-.47,17,2,11.33,4.78,23.63,12.93,35,18,10.64,4.74,22.11,7.52,33,12-.33.67-.67,1.33-1,2-11.05,4.84-24.75,9.15-37,13l-11,1c-7.5,3.24-18.46,8.34-26,11-10.33,3.64-24.74,5.64-33,11-21.15,13.73-42.34,28.18-63,43-8.36,6-16.7,15.14-26,20-5.62,2.94-11.91,2.67-17,6-5.53,3.61-9.57,10.31-15,14-9.47,6.43-19.45,8.26-30,14l-6,7c-8.49,5-19.94,8.67-29,12-12.32,4.53-24.68,2.56-39,6-10.43,2.51-20,7.5-30,10h-25c-20.14,0-41,.87-58-3l-27-3c-45.85-11.77-92.29-17.91-140-29l-31-2c-39.82-8.89-92.22,1.18-130-9-43.61-11.75-94.13-20.07-137-33l-34-7c-37.14-12.1-71.75-25.77-110-36l-25-2c-21.4-5.22-46.81-7.1-68-12l-30-3c-34.33-9.28-70-21-104-32-10-3.23-18.9-2.36-30-5-18.59-4.41-39.9-4.71-59-9-12-2.7-22.86,0-34-3-28.58-7.6-58-22-93-14-10,2.28-19.7-.69-28,2-4.67,1.51-8.25,5.3-12,7-5.08,2.3-9.85,1.83-15,4-16.47,6.94-34.38,21-44,35-10.31,15-13.92,32.19-21,51-4.35,11.54-10.28,24.51-15,36-5.31,12.9-8,27.34-13,39-2.31,5.35-1.1,10.47-3,16-4.2,12.2-7.88,26.65-13,39-19.15,46.18-39.1,89.67-62,132-4.58,8.47-12.88,15.4-18,23-1.49,2.21-.61,4.52-2,7-1.73,3.08-6,6.13-8,9-4.93,7.21-8.07,13.79-13,21l-10,9c-6,8-12.12,13.15-19,20-8.64,8.61-15.72,16.82-26,24l-16,17c-17.82,13-36.06,24.49-54,37-6,4.19-11,11.86-17,16-2.91,2-6.09,2-9,4-4.06,2.8-8.43,8.43-12,12l-18,19c-7.19,5-14.64,8.05-22,13-8.23,5.54-15.94,13.59-29,14V3060c10.94-7.67,19.56-20.56,29-30,23.68-23.68,47.54-47.09,67-75,7.18-10.29,18.07-18.63,26-30l9-8c32.52-46.59,74.95-84.65,109-130l19-18c12.07-17.29,27.45-30.29,40-47l24-23c15-21.55,34.7-38.7,53-57,17-17,32.4-35.68,52-50l15-16c6.11-4.54,12.89-7.46,19-12,9.06-6.73,16-17.21,25-24,34.45-26,63.74-56.21,98-82,13-9.82,24.63-22,38-32,3.35-2.51,6.39-8,10-10l7-1c5.31-2.09,12.16-7.48,17-11l7-8c4.34-3.17,8.65-4.83,13-8l8-9c20.5-13.56,38.25-28.81,56-45,4.62-4.21,11.31-5.83,16-10,4.47-4,7.5-10.06,12-14,2.93-2.57,7.55-1.75,11-4l8-10c3.69-2.51,8.31-2.5,12-5l7-8c3.74-2.79,7.49-6.71,11-9l9-3c6.75-4.53,12.42-11.74,20-16,2.35-1.32,4.93.06,8-1,1.65-.57,4.34-3.47,6-4h10c3-.78,8.48-4.82,11-5,15.35-1.07,29.59-2.09,47-1v2h-1c-2.51,6.3-10.29,8.76-16,12-3.25,1.85-6,6-9,8-11.11,7.56-21.91,12.56-33,20-43,28.87-84.09,61.48-126,92-27.66,20.14-52.6,43.18-81,63l-13,14c-12.57,9.18-23.27,18.11-36,27s-22.6,26-35,35c-12.66,9.22-23.61,18.7-36,28l-23,24c-15.65,11.83-29.19,27.19-43,41l-16,17c-18,13.43-32.28,30.28-48,46-15.4,15.4-31.84,29.33-45,47l-16,15c-19.25,25.46-44.74,45.26-63,72-5.1,7.46-14.68,12.72-20,20-23.6,32.28-51.34,59.5-75,92C394.64,2933.23,377.33,2945.41,377,2969Z" fill-rule="evenodd"/>
  </g>
  <g id="petals" class="g-to-color" style="isolation: isolate">
    <path d="M2358,1503q-.49,6-1,12c3.57,2,11.84,5.44,15,8,2,1.63,1.24,4.77,4,6,10.05,4.47,22.94,1.52,23,16-3.59,6,.28,12.56-2,20-1.54,5-6.86,7.93-9,12q-1,7-2,14a21.58,21.58,0,0,1-7,1c-3.19-1.94-11.68,1-16,2a10.92,10.92,0,0,1-2,3c1,4.56,1.95,7.9,2,14,5,2.88,8.11,4.62,8,13,2.85,3.69,1.35,9.77,2,16,.29,2.79.47,29.57-2,37-2.57,7.73-7.86,14.27-10,24,6.05,4.71,4.76,13.44,14,14,3.18-5,13.5-4,17-9,1.5-2.16.58-4.58,2-7l9-8c10.05-10.08,28.82-32.54,48-29,1.52,5.6,6.62,14.18,11,17,1.76,1.13,6.9.27,8,2v4c-5.84,4.87-5.88,15.32-9,23-3.58,8.79-10.37,17.68-13,27-1.63,5.78,4.68,17.62,4,18-1.36,3.83-4.94,5.82-6,9-3.8,11.43,6.79,16.82,11,21,14.06-.08,11.25-3.79,19-7,6-2.48,33.34-6.19,38-5,9,2.3,23.61,21.12,26,30,1.31,4.84-1.63,10-2,12-1.67,8.91,4.38,16.88,1,25-2.34,5.61-20.45,29.93-25,33-2.19,1.48-4.58.58-7,2l-6,7c-7.54,7.52-14.54,15.38-22,23q2,7,4,14c-.29,1.53-3.51,4.49-4,6v14c-.76,2.19-4.22,4.68-5,7-4.59,13.73,5,34,3,43-1.41,6.31-6.62,7.32-7,16,5.12,3.87,8,11.29,13,15,5.41,4,11.52,7.33,15,13,1.51,2.46-.31,5.85,1,9,1,2.34,5.1,4.48,6,7,5.66,15.84-1.62,31.57-3,44-.72,6.45,7.13,8,5,16-3.69,13.84-18,28.66-28,37v4l14,15c3.63,2.67,14.88,5.13,17,7,2.64,2.33,3.54,7.41,6,10,6.36,6.7,15.86,11.18,21,19,4.39,6.68,5.65,14.35,9,22,2.68,6.11,7.36,12.61,10,19,6.62,16,7.76,35.28,12,53q.49,11,1,22c1.66,7.32,1.71,21.68,0,29v90c.61,2.6,5.34,17.88,5,19l-4,3c-1.53,3.52,1.3,10,1,12-1.39,9.26-9.33,19.6-16,24-25.39,16.77-51.46,22.21-82,31h-11c-10.19,2.92-30.22,2-39,8-8-2.13-12.59-.44-20,0-10.15.6-17.55-2.15-28,0-12.35,2.54-22.85-1.55-31,4-11.74,8-13.51,29.58-19,44-2.36,6.19-7.4,12.08-10,18-5.21,11.86-9.68,22.17-16,32-2.84,4.41-3,9.9-6,14l-14,13c-15.22,15.22-30.28,30.24-49,42-6.25,3.92-13.92,4.86-20,9-5.41,3.69-8.49,11.27-13,16-6.19,6.49-13.68,10.54-21,16-6.16,4.59-11.34,11.64-18,16-25.26,16.53-69.7,24.39-105,31-15,2.82-46.4,1.06-65-1-8.13-.9-18.26,6.08-26,4-10.25-2.75-13.73-10.82-28-11-3.59,3.15-8.84,3.24-13,6-4.91,3.25-8.85,13.34-10,20,2.73,1.71,2.5,2.54,7,3,.45,4.81,1.74,4.39,3,8h-3c-6.84-7-15.92-11.19-24-17-7.81-5.62-15.38-14.23-24-19s-17.18-6.38-26-11c-8.61-4.51-17.83-11.88-27-16a254.68,254.68,0,0,0-24-9l-10-2-5-7c-5.18-4-12.4-4.59-18-8-8-4.9-16.66-12.95-28-14-11,10.32-41.16,23.29-58,28h-31c-24.22,0-47,1.11-66-5-5.14-1.65-11.22-5.33-16-7-6.54-2.29-17.2-1.24-23-4-3.48-1.66-6.58-7.77-10-10l-10-3c-7.07-4.21-10.61-13.2-17-18-6.58-4.95-14.42-10.26-19-17l-6-14c-2.45-3-14.47-12.37-17-11-5.41-4.49-8.81-13-14-20-3.57-4.79-7.72-1.64-10-7,2.78-3.45-.55-10.35-3-15-1.58-3-5.45-5.34-7-8-6.29-10.82-7.41-23.6-12-36-1.6-4.33-5.31-9.37-7-13-5.52-11.86-5.09-23.26-9-37-2.12-7.43-6-16.8-8-24q-1-19.5-2-39c-7.07-30.81-6.92-67.22-14-97-2.16-9.07,3.88-43.19,6-51v-11c1.48-5.76,4.43-13.35,6-19v-9c1.5-4.4,6.57-8.17,8-13,2.6-8.8-.31-17.53,2-25,3-9.84,8.4-22,12-31,1.8-4.49-.76-10.19,1-14,4.65-10.05,10.55-23.56,11-37-15.88.18-39.23,12.46-46,22-3.12,4.39-3.52,10.07-8,13l-14,4c-5.6,3.36-9.53,10.2-16,13-7.78,3.37-15.37,3.1-22,7-2.53,1.48-5,6.09-8,7-4.86,1.47-10-3.7-17-2-15.62,3.8-32.84,9.56-49,14h-11c-13.23,3-25.21,2.39-38,6-3.37.95-10.46,3.09-14,4h-10c-3,1.08-9.93,3.05-13,5-1.31.83-2.38,3.3-4,4-4.46,1.92-6.44-.93-11,0-4.16.85-10.7,4-14,5s-5.7-1.29-8-1c-3.22.41-8.82,3.19-12,4-6,1.53-12.43-1.25-16-2-4.94-1-13.6,2.8-17,4-5.13,1.81-11.38-1.28-14-2h-16a85.87,85.87,0,0,1-22-3c-13.06-3.67-25.45-3.75-38-8-11.24-3.8-24.29-9.91-35-14-13.33-5.08-25-7.55-37-14l-2-3c-5.21-2.45-9.57-1.34-14-4-22.87-13.75-42.65-31.64-61-50l-15-14c-5.11-7.33-7.82-15.56-13-23-5.74-8.23-14.16-15.87-19-25-5.43-10.24-5.24-22.86-10-34a386.5,386.5,0,0,1-19-58v-13c-8.12-38,2.41-87,14-114,2.13-5,7.26-22,10-25s7.78-3.52,10-7l3-13c.25-.43,12.33-11.56,13-12,2.19-1.43,5.27.32,8-1,2-1,2.42-4.58,4-6,.94-.84,20.68-10.64,22-11,15.17-4.12,32.16.89,43,4,14.32,4.11,25.73,5.89,43,6a33.37,33.37,0,0,0,5-15c-2.08-2.58-2.68-6.64-5-9-7.33-7.46-17.18-12-26-18-6.82-4.65-12.14-12.26-18-18-6.84-6.7-13.71-11.61-20-19-2.34-2.75-6.77-4-9-7-11.52-15.22-25.47-29-36-45-7.79-11.83-16.43-30.69-22-44-2.21-5.27-1.81-10-4-15-4.18-9.49-11.41-19.72-15-30-2.61-7.47,3.49-9.34,2-16-2.51-11.23-9.1-21.36-12-33-1.74-7,2.18-20.82,0-30-2.57-10.79-7.73-35.65-4-51,3.18-13.08,4-26.22,8-39,1.62-5.14,5.65-11.6,7-17,.85-3.38-4.88-17.4-6-21-2.74-8.83.62-36.44,2-41,3.25-10.74,12.46-18.1,16-28,2.6-7.27.77-13.37,3-21,5.26-18,8.81-33,19-48,5.46-8,14.48-15,23-20,3.71-2.19,15-5,17-8v-19c-2.3-3.63-1-14.29,0-18,2.55-9.82,3.08-18.65,8-26,4.28-6.4,11.67-11.6,16-18,7.66-11.32,18.81-24.4,30-32,5.88-4,13.15-5,19-9,14.33-9.78,31.71-21.63,49-28,8.12-3,45.68-4.12,51-3,11.17,2.35,20.13-4.75,32-1,4.54,1.43,10.48,4.65,16,6h15c3.84,1.09,8.5,4.73,12,6,9.19,3.33,20.11,4.81,29,7,4.8,1.18,8.49-1.26,11-2,7.8-2.3,16.88-.64,23,2,4.55,2,7.29,6.56,11,9,6.7,4.4,12.88,6.44,19,11s10.15,12.52,16,17c3.16,2.42,8.37,5.73,12,7h5l4,5c3.31,2.39,7,3.31,10,6,1.64,1.5,2.34,4.52,4,6,7.85,7,18.23,10.9,26,18,3,2.78,4.93,7.26,8,10,4.37,3.89,9.89,5.91,14,10,2.25,2.25,3.6,6,6,8,3.26,2.77,10.74,1.23,14,4,7.67,6.52,10.93,17.86,17,26,2.3,3.08,6.42,5.17,9,8s3.38,7.06,6,10c2.11,2.37,5.85,3.66,8,6,5.51,6,8.55,13.9,14,20,3.06,3.43,7.81,5.65,11,9,6.8,7.15,11.67,20.83,23,23,1-.8.27-.35,2-1,1.13-2.33,2.14-3.32,3-6-6.94-9.91-4.59-32.14-8-46-11.12-45.14-14.74-109.87,1-154,2.54-7.12,1-14.87,4-22,7.18-16.77,15.62-37.09,22-54,4.32-11.45,6.17-22.09,12-32,6.33-10.77,17.92-17.92,26-27,3-3.4,3.68-10,7-13,1.85-1.7,5.24-1.26,7-3,2.22-2.18,3-5.62,5-8,3.26-3.78,11.75-8.73,16-12,4.42-3.41,7.39-9.68,12-13,18.38-13.24,38.31-22.12,60-32,18.64-8.49,40.21-13.64,63-19h19c7-1.5,20.65-2.35,28,0s19.68,8.07,24,14c3.15,4.33,4.06,11.5,9,14,1.18.8,1.68.77,4,1,34.55-36,105-20,142,3,32.48,20.17,61.39,58.14,77,95,3.91,9.22,4.42,30.71,9,38,6.55,10.42,21.62,15.91,29,26,18.82,25.72,42.67,52.51,52,87v22c1.87,8,1.51,19.86,2,28,4,2.16,27.54,10.59,29,10,5.36-1.48,8-5,12-7,9.74-4.78,23.06-2.22,31,1,5.86,14.2-3.33,16.79-6,25-1.92,5.93,7,26,9,30,9.23-1.75,18.46-3.91,26-8,2.95-1.6,6.66-5.68,10-7,8.52-3.37,35-3.79,46-4,1.44,2.67,2,4.22,2,9-2.65.29-2.09.83-2,6-3.82,6.16.65,15.89-2,24-1.1,3.37-5.76,6.2-7,9q-1,10.5-2,21c-3.29,7-12.95,11.79-15,19-.77,2.7.13,12.8,0,17,11.43,8.55,15.24,23.86,25,34,6.78-.58,7.94-4.54,13-6,11.34-3.27,19.25,6.76,28,1,3.44-1.19,4.37-3.19,6-6,6.58,3.23,8,.71,14-1,6.52-1.86,35.08,1.5,39,4,4.07,5,11,12.89,13,19,1.52,4.61.68,8.66,2,12,21.78,9.09,33.31,31.63,28,67-.78,5.19-4,15.93-2,22,1.13,3.48,5.68,4.54,7,7,1.23,2.29-1.61,1.84,0,4v1c1.43,1.47,5.82,1.42,7,3v6c2.29,3,8.48,2.13,12,4C2353.34,1497.31,2349.36,1501.49,2358,1503Z" fill-rule="evenodd"/>
  </g>
  <g id="shadow_Imagen" data-name="shadow Imagen">
    <image id="shadow_Imagen-2" data-name="shadow Imagen" width="2463" height="2889" transform="translate(211 727)" xlink:href="IMGs/flower11.png" style="opacity:0.5"/>
  </g>
</svg>
