<svg xmlns="http://www.w3.org/2000/svg" class="posterSVG_part small unclickable hide" data-feature="flower2" xmlns:xlink="http://www.w3.org/1999/xlink" viewBox="0 0 2848 4288">
  <g id="stem" class="g-to-color" style="isolation: isolate">
    <path d="M1310,1428l5,1c6,11.16,7.71,30,12,42q.49,15,1,30c4.22,10.87,7,26.72,10,39v12c2.89,10,6.59,22.57,9,34l3,1c5.21,3.06,15.23-.74,22,1,10.5,2.7,24.77,6.17,34,11,5.73,3,11.65,10.17,17,14,16.6,11.87,32.77,23,48,36,8.17,7,23.22,12.18,33,18,7.19,4.28,14.78,12.5,21,18,6.72,5.94,15.62,8.68,23,14,4.67,3.36,7.86,9,12,13-.63,1.75-.19,1-1,2-3.41,10-21.93,21.78-29,30-18.74,21.78-37.49,46.51-48,76l-3,17c-3.11,9.12-7.47,20.9-10,31v10c-2.14,9.15-3,19.45-6,29-2.26,7.08-6,16.09-8,23-3,10.43-2,17.93-6,27-.53,1.19-3.33,3.83-4,5-2.79,4.83-5.48,14.23-7,19v9c-1.71,7.23-3.37,16.89-5,24v12c-5.28,19.75-5.2,48.66-10,68-2.77,11.15,1.29,24-2,35-3.72,12.42-8.75,27.13-12,39-3.13,11.41-2.77,20.15-7,30-1.21,2.83-4.92,6.25-6,9-2.66,6.76-1,12.58-3,19-7.88,25.11-14.32,55.05-24,80-2.23,5.74-6.9,12.24-9,18-.33,3.33-.67,6.67-1,10-1.41,4.1-5.31,10-7,14l-3,13c-18.13,45.3-38.68,90.36-60,133-10,20-14.66,41.41-26,60-8.34,13.67-14.9,28.24-23,43-5.64,10.29-14.49,21.27-20,32-1.78,3.46-.47,5.95-2,10-.67,1.76-3.37,3.93-4,6q-.49,6-1,12c-4.54,10.27-15.34,19.42-20,30q-2,9.49-4,19c-6.51,17.86-13.9,39.34-20,57-1.77,5.11-.28,8.88-2,14-2.38,7.08-5.77,16.69-8,24v8c-25.47,81.65-38.26,175.11-61,259-3,11-1.15,21.49-4,32-6.34,23.43-12.13,49-19,72-3.48,11.66-2.56,22.21-6,34-13.12,45-18.21,97.4-32,143v8c-2.6,8.54-4.94,20.31-7,29v11c-3.58,12-6,26.1-9,39-2.26,9.88-.13,19.37-3,29-4.27,14.31-6.42,33.48-10,48v11c-3.65,14.71-7.72,31.28-8,48h2c3.81-4.06,9.31-6.85,13-11,2.84-3.19,3.54-7.4,6-11,3.82-5.58,10.08-10.53,14-16,2.75-3.84,2.59-7.42,5-12,1.93-3.66,6.66-6.64,9-10,2.12-3,2-6.63,4-10,2.71-4.56,7.27-9.53,10-14,3.76-6.18,2.35-14.05,6-21a232.69,232.69,0,0,1,18-28c26-35.14,54.5-69.24,85-100,11.88-12,35-24.14,44-37,10.88-15.62,19.68-32.43,31-48,3.7-5.09,9.53-9.4,13-15,8.58-13.84,14.16-27.72,23-41,8.7-13.07,20.57-24.63,29-38,14.15-22.44,24.76-45.1,40-66l8-7c13.87-19,27.94-36.37,42-55,7.92-10.5,19.35-18.39,28-30l14-13a168.65,168.65,0,0,0,24-30l8-7,17-19,12-11c17.16-24.57,35.87-46.54,53-71,4.38-6.25,12-11.56,16-18,20.38-32.76,43.51-64.94,62-99,23.47-43.22,50-81.9,74-125,5.42-9.76,14.58-19.16,20-29,19-34.57,36.5-69.92,57-103,11.08-17.89,19.26-38.44,30-56,5.38-8.79,4.68-21.94,19-22,1,.8.27.35,2,1,1.53,2.46,2.29,2.28,3,6-9,13.35-9.81,32.08-17,47-20.06,41.63-30.93,88.44-48,133-34,88.8-77.12,173.63-118,257-35.45,72.29-86.41,130.64-132,193l-17,16c-11.89,16.65-26.59,31.34-38,48-4.08,5.95-5.43,12.58-9,19-7.22,13-18.74,24.74-26,38-5.93,10.82-9,21.72-14,33-2.87,6.44-8.72,13-12,19-11,20.06-19,40-30,60-29,52.67-62.74,103.54-92,156-10,17.94-25.47,34.24-37,51-3.31,4.81-4,9.76-7,15-2.85,4.9-8.7,9.4-12,14-13.76,19.17-26.17,37.8-40,57-3.79,5.26-9.73,9.2-14,14-7.92,8.91-14.92,18.31-22,28l-16,15a325,325,0,0,1-30,35l-18,17c-6.68,9.13-15.5,15.36-22,24-20.65,27.47-46.84,50.91-75,71-12.76,9.11-20.2,26-27,41-3,6.56-4.53,20.12-11,23-3.49,2.19-12.72,1-18,1H894a13.83,13.83,0,0,1-1-4c6.25-7.29,7.81-18.74,12-28,12.47-27.55,21.85-59.51,30-92,3.78-15.08,2.53-30.79,6-45v-8c2.77-8.86,7.13-19.66,9-29,1.46-7.28-4.84-10.58-3-18,1.94-7.83,3.74-21.45,6-30v-11c11.33-48.47,13.49-102.61,26-149v-9c2.91-11.47,5-25.74,8-37q1-10,2-20c3.68-13.17,6.51-29,10-42q1-10,2-20c2.67-8.09,5.79-20.07,8-28,2-7.12-.15-12.1,2-19,14.27-45.79,17.13-98.25,32-143q1-7.5,2-15c3.47-10.82,6.33-26.07,10-36q.49-7,1-14c2-8,4.91-19.05,7-27v-7c13.78-43.27,20.29-94.16,32-138,2.49-9.31.45-17,3-27,5-19.38,12.25-42.07,18-61,6-19.65,6.12-38.29,13-57,5.78-15.74,13-30.86,17-48,4.25-18-6.33-40-3-55s2.75-33.5,6-48v-19c1.9-8.36,2.11-21.45,4-30v-13c6.63-26.61,6.34-59.18,13-85q.49-8.51,1-17c10.6-41.27,15-84.54,27-125,29.2-98.77,55.1-198,86-294,3.88-12.06,3.3-22.62,7-35,6.61-22.1,12.19-49.6,18-72,4.94-19,5.28-38.82,11-56,2.85-8.57,3.1-19,5-27v-15a174.39,174.39,0,0,0,4-35v-27c6.34-29.58,2.09-87-4-113v-21c-2.08-8.91-1.5-21.39-4-31-4.13-15.91-5-38.59-9-55v-22C1304.91,1461.19,1304.62,1438.34,1310,1428Z
    M1355,1637c-2.2,2.09-3.69,1.72-5,5-1,1.82,1.36,5.51,1,6-.86,1.17-2.14,1.24-3,3,2.08.37,1.92.24,3,1-4.6,4.34-.54,7.4-1,12a202.38,202.38,0,0,1-4,22v119c0,13.39-1.57,30.37,1,42q-.49,14-1,28c1.83,8.39-1.86,22.66,1,32,1.35,4.4,3,8.44,3,16,3.38,2.4,2.78,3.82,9,4,1-.8.27-.36,2-1,1.27-10.7,12.23-11.17,15-21,3.1-11-1.76-25,1-35a502.11,502.11,0,0,0,12-54c1.15-7.39-2-18.38-2-28,0-10.62,1-24.06-1-33q-1-30-2-60c-3.89-15.11-12.17-23.15-17-35-2.43-6-2.14-17-6-22C1359.58,1637,1357.73,1637,1355,1637Z" fill-rule="evenodd"/>
  </g>
  <g id="petals" class="g-to-color" style="isolation: isolate">
    <path d="M1555,981c29,.24,38.3,11.6,44,35v22c10.25,42.21,10.1,93,10,145,2.89,1,7.67,1.06,12,1,16.37-24.54,36.37-52.06,76-53,8-13.69,11.34-31.19,26-38,24.53-11.4,55.81,9,60,25,1.37,5.21-1.2,11.36-2,15q.49,9,1,18c4.79,3.67,7.23,10.47,12,14,2.14,1.59,5.55,1.83,7,4l3,12c3.07,4.87,8.7,7.64,11,14q.49,14,1,28c18.64,8.93,14,25.47,8,43q-.49,7-1,14c-8,32.14-33.37,51.72-34,92h1v1c35.24-.53,74.2,4.4,102,12,7.91,2.16,13.51-.09,21,2,17.19,4.8,40.26,7.58,58,12h10c8.34,2.5,20.61,4.08,29,6,11,2.5,22.17-5,23,8-6,6.41-8.65,15.91-13,24-11.19,20.78-27.55,41.12-46,55l-5,6c-14.38,8.78-28.4,17.37-45,24-10.73,4.29-28.84,1-39,6-3.58,1.75-5.89,7.64-9,10s-6.19,3.74-9,6c.63,1.75.19,1,1,2,8.8,8.73,46,10.15,61,15,22.1,7.13,34.69,16.33,47,33,3.42,4.63,8.62,9.26,11,15,6.19,14.92,4.89,48.55-2,62-1.83,3.57-7.15,5.72-9,9-.67,3-1.33,6-2,9-6.32,10.89-16.33,14.53-24,23-10,11.09-13.52,29.38-25,39-8.39,7-19.4,8.75-29,15l-5,6c-5.14,3.44-11.1,3.13-17,6-3.75,1.83-7.49,6.15-11,8-6.91,3.64-12.16,4.41-19,8-4.07,2.14-7,7.87-11,10l-12,2c-1.1.5-2.91,3.41-4,4-7,3.82-32,15.91-46,11-1.25-.44-6.82-2.73-9-3-3.2-.4-9.33,2.39-14,1-15.19-4.52-26.71-27.61-40-35-9.31-5.18-18.77-6.57-29-11-4.35-1.89-9.92-6.1-14-8-7.55-3.51-15.23-3.26-22-7-7.19-4-15.64-10.15-23-14-10.22-5.35-20.07-7.88-29-14-11.45-7.86-19.38-20.2-30-29-5.19-4.3-18.74-4.12-25-8-9.65-6-17.74-15.38-27-22-10.42-7.45-21.82-11.31-33-18-4.58-2.74-8.6-8.83-13-12-5.69-4.1-10.77-6.22-17-10-3.61-2.19-5.88-7.24-9-10-2.62-2.32-5.83-2.09-9-4-7.82-4.71-14.79-13.69-23-18l-9-2c-1.76-.88-3.76-4.25-6-5-12.81-4.3-27.6-2.2-42-5-7.3-17.58-6.68-38.82-12-59-3.66-13.88-6.33-33.32-10-48v-10c-1.54-6.13-5.48-12.36-7-17-1.91-5.82-.8-22.2-1-28-2.73-1.88-5.22-5.1-8-4s-1.84.17-3,3c-6.53,7.27-1.13,22.51-1,32,.41,29.43,7.13,55.49,8,83l-3,1v1c-1,1-1-1-1-1-11-3.92-23.74-35.25-36-42l-9-1c-7.84-2.25-21.63-6.94-34-4-2.33.55-4.42,1.86-8,2-16.66.63-29.67-2.64-41-6-6.23-1.85-10.48,0-17-2a222.86,222.86,0,0,1-46-20c-2.11-1.25-22.36-23.44-24-26-2.25-3.52-.2-5.88-4-8-2.89-1.72-8.79-.44-12-2-9.27-4.5-20.76-13.32-31-16-5.18-1.35-8.91,2.41-13,2-6.31-.63-13.68-3.52-18-5h-14c-12.82-2.88-27.34-.71-41-4-28.29-6.81-65.58-7.57-93-16-15.11-4.65-26.28,4.29-41,1-6-1.33-14.49-.31-21-2-10-2.6-24.47-5.6-34-8-7.28-1.83-19.19.29-25,1-11,1.34-28.3-3.9-44-3-6.54.38-22,5.44-29,1-10-3.21-15.21-14.27-22-21,.19-4.22,1.33-7.08,2-10v-25c1.65-5.75,8.28-9.12,10-14v-13c4-10,33.4-29.75,43-37,5.91-4.46,11-11.62,17-16,10.66-7.73,21.78-11.45,34-18,1.73-.92,3.41-4,5-5,7.34-4.77,16-6,24-10,5.53-2.74,11.28-7.64,17-10,8.8-3.63,22-3.82,31-6h12c28.64-8.45,73.86-12.39,106-4h13c28.84,7.55,59.34,8.4,84,20,4.52,2.12,2.53,4.63,5,9,.78,1.37,2.74,1,4,2,9.78,7.79,2.74,7.89,22,8,10.45-6.6,34.6,9.44,40,13,8.92,5.88,18.13,9,27,15,5,3.41,9.28,10.08,13,15l27,25c7.32,7.38,19,24.63,31,26,7.12-7.54,15.9-13.37,23-21h1v1c8,3,10,13.16,12,22v12c1.87,5.77,8.18,17.66,13,21,3.39,2.34,7.66,2.74,10,6,7,9.84,6.89,24.91,24,25l6-7c0-19.06-11-29-17-42-3-6.44-1.76-11.41-4-19-.83-2.8-4-5.44-5-8q-2.51-14-5-28c-2.93-13.27.59-32.13,3-42v-44c1.28-4.12,4.84-9.44,6-14v-14a197.63,197.63,0,0,1,17-39c1.76-3.14,6.32-5.93,8-9,2.88-5.25,2.24-10.78,5-16,4.92-9.32,13.37-19.18,19-28,.33-1.67.67-3.33,1-5,6.29-11,17.06-21.35,23-33,3-5.91,1.72-11.46,8-14,1.69-1.14,4.9-1.07,8-1,8.61,9.43,24.15,11.67,31,22,2.69,4,8.53,27.75,7,35-.68,3.22-2.48,12.28-1,17,6.61,21.12,25.88,26.63,40,40,8.56-2.25,26.36-11.09,23-24-.73-2.8-4.17-6.3-5-9-2.59-8.43,2.56-15.82,3-22,1-13.58-3.7-36.34,2-50,6.4-15.34,26.19-25.67,40-34,5-3,8.62-9.07,14-12C1538,987.63,1547.88,986.47,1555,981Z" fill-rule="evenodd"/>
  </g>
  <g id="shadow_Imagen" data-name="shadow Imagen">
    <image id="Shadow_Imagen-2" data-name="Shadow Imagen" width="1402" height="2858" transform="translate(640 974)" xlink:href="IMGs/flower21.png" style="opacity:0.5"/>
  </g>
</svg>
