<svg xmlns="http://www.w3.org/2000/svg" class="posterSVG_part unclickable hide" data-feature="flower3" xmlns:xlink="http://www.w3.org/1999/xlink" viewBox="0 0 2848 4288">
  <g id="stem" class="g-to-color" style="isolation: isolate">
    <path d="M1718,3496h-4c.24-10.07,5.13-15.84,2-24-1.2-3.12-5.81-6.08-7-9-2.73-6.68,3.62-16.65,4-21,.18-2.09,1.28-4.94,2-8s-3.33-7.65-1-12c.22-.41,3.77-1.59,4-2-.33-3.33-.67-6.67-1-10,1.84-12.36.48-28.32,2-42,.4-3.61-1.15-14.48-2-18q.49-7,1-14c-1.14-4.74-2.68-15.4-4-20v-10c-2.56-10-4.4-23-7-33q.49-7.5,1-15c-5.14-16.65-12-34.47-17-49-2.64-7.63.06-17.05-2-25-4.4-17-10.19-36-15-51v-12c-1.62-4.85-7.21-13.59-9-18,.33-3,.67-6,1-9-1.55-8.24-5-14.87-8-22-3.44-8.23.67-19.75-2-29-1.23-4.26-5.57-7.6-7-11-1-2.37.62-11-1-16-.28-.85-2.73-3.15-3-4-2-6.37.88-16-2-24-1.1-3-4.74-6-6-9q-.49-6.49-1-13c-1.13-4.34-3.8-9.68-5-14-2.31-8.31,2.06-14.42-1-22-2.7-6.67-7.8-14.4-10-21v-16c-2.1-6.71-5.28-17.77-8-25-2.82-7.49.51-13.79-2-21-.29-.82-2.72-2.39-3-3q-1-6-2-12c-2.76-6.35-4.88-14.79-8-22-1.34-3.11-4.78-6.85-6-10-.33-3.67-.67-7.33-1-11-1-3.24-4.5-6.2-6-9-2.62-4.9-2.44-8.6-5-14-3.07-6.47-10.51-10.83-14-17-9.08-16.06-11-35.31-19-53-3.74-8.29-10.93-15.65-15-24-5.24-10.74-10.83-41.2-22-44-8.77-5.26-25,5.11-31,7-4.27,1.34-12.24-.41-15-1l-13,1c-6-1.27-13.6-8.82-19-12,.17-2.51-.41-3-1-7-11.3-1.05-13.91-10.12-21-15-6.07-4.18-11.19-6.75-17-11l-11-12c-3.06-2.19-6.65-1.92-10-4l-7-9c-9.18-6.41-24-9.62-24-25,4.13-3.25,4.16-5.85,12-6a6.3,6.3,0,0,0,5,0c9.2-4.62,16.12-13.38,27-17,10.31-3.43,25.1,1.27,33-4,3.64-2.43,10.6-10.67,12-15v-18c1.43-5.86,6-15.56,5-24-.44-3.55-4.5-8.26-5-11-.37-2,.9-6.56-1-10-.74-1.34-4.24-2.42-5-4-.33-2.67-.67-5.33-1-8-2-4.62-9.88-20.52-13-24-9.45-10.54-24.39-17.92-25-37-2.08-.37-1.92-.24-3-1-3.55-3.41-4.59-8.39-7-13,2.53-1.47,1.54-.44,2-4-3-1.1-3.33-1.85-8-2v-6h-4c-2-3.16-6-10.61-9-13-3.32-2.67-9-5.29-11-9-1.82-3.34,1.18-3-2-5-.37,2.08-.24,1.92-1,3v-1c-1.53-2.74.2-4.77-2-8-4-5.87-9.19-6.46-14-10-3.21-2.36-9.62-7.76-12-11-.33-1.33-.67-2.67-1-4-3-2.77-7.47-2.71-11-5-4.51-2.93-8.93-9.65-14-12h-13v1c-11.22,4.13-15.5,21.63-22,31-6.14,8.84-21.74,34.39-30,39-9,5-17,5-28,8-6,1.65-10.6,5.29-17,6-10.71-9.26-19.6-5.87-35-5h-20c-5.22,1.39-8.46,6.94-13,8l-9-2c-10.54-.43-21,6-32,4-6.94-14.29-12.21-9.55-27-15-4.19-1.55-8.37-7.45-12-10-6.64-4.65-13.71-6.88-21-11-3.31-1.87-14.86-12.79-18-16s-3.8-9.79-8-12l-7-1c-2.38-1.07-4.32-3.88-7-5h-4c-3.55-2.67-3.27-10.21-7-13-4-3-14.76-9.4-19-11-9.65-3.65-20.24-1.8-28-7-3.41-2.28-2.69-6.5-5-10-2.79-4.22-8.92-5-13-8l-5-7c.63-1.75.19-1,1-2,1.9-3.21,5.21-2.54,7-6,10.62-17.35-19.09-36.28-26-42-5.68-4.7-4.17-17.69-10-22-15-11.12-33.18-17.49-49-28-3.6-2.39-10.62-7.37-13-11s-1.88-8.41-5-11c-5-4.15-11.45-4.18-18-7-3.48-1.5-5.24-5-8-7-12.85-9.14-40.88,7.82-42-13,8.35-9.7,17.58-18.4,27-27q1-9.49,2-19c-3.38-14.59-7.06-18.44-3-34,3.21-12.31-3.55-22.71,2-35,8.75-19.38,23.79-24.68,35-40,4.62-6.32,11.94-6.58,13-17-13.77-17.43-32.27-29.26-44-49-3.9-6.55-3.94-14.81-7-22-3.21-7.54-9.32-15-12-23q-2-11.51-4-23c-2.77-4.75-7.73-7.61-12-11l-3-5c-6.59-7.33-19.61-16.35-24-25q-2-9.49-4-19c-1.72-3.37-6-6.76-8-10-2.42-4-2-8.41-4-13-2.29-5.41-6.85-11.28-9-17-3.4-9-3.21-19.82-8-28-2.75-4.69-10.62-6.76-15-10-8.2-6.07-14.81-15.77-21-24l-11-10c-3.3-4.87-3.65-11.35-7-16l-12-11c-2.52-3.71-2.63-8.18-5-12-6.48-10.48-17.13-20.39-22-32-2.69-6.42-.44-16-3-23-4.17-11.48-12.49-22.4-17-35-3.76-10.51,1.55-21.67-1-33-2.31-10.26-13.23-39.64-10-51,1.52-5.35,6.53-10,8-16,2.24-9.14-4.23-17.91-3-26,.87-5.75,4.64-11.91,6-17,2.33-8.75-1.52-20.25-3-27v-17c-1.79-8.18-4.13-15.29-6-22-2.18-7.81-1.13-15.19-4-22-2.73-6.47-17.36-22-15-28,1.94-3.16,10-2.26,15-2,8.48,8.44,25.18,15.77,37,21,6.23,2.76,11.86,1.59,18,4,5.53,2.17,10.83,7.9,18,9l12-2c.43.15,2.33,2.75,3,3,5.56,2.11,12.16.33,17,3,2.58,1.42,4.14,5.79,7,7,5.49,2.32,10.66,1,15,4,4.73,3.28,7.06,10.9,11,14,23.62,18.56,39.09,43.6,56,69,4,5.94,10.48,7.32,17,11,7.12,4,9.7,13.62,16,18,6.72,4.67,16.85,6.88,22,13,4.29,5.11,1.79,11.62,5,17,5.11,8.56,15,16.12,20,25,3.52,6.19,3.58,12.49,7,19,2.53,4.82,9.23,6.61,12,11,2.45,3.89,5.24,7.22,7,11,.33,1.67.67,3.33,1,5,4.58,5.91,12.53,11.06,16,18,1.79,3.58,1,6,3,9l5,4c3.44,4.87,4,11.76,9,15l6,1c1.62,1,2.35,4.78,4,6l4,1c9.14,9.43,12.17,24.2,20,35,4.61,6.37,13.4,10.75,15,20h5c1,1.89,2.39,5.58,4,7l3,1c2.29,3.13,1.86,7.94,4,11,2.42,3.47,8,6.42,10,10,.33,3.33.67,6.67,1,10,2.06,4,8.41,3.78,11,7,3.09,3.83,3.25,10.06,6,14,3.54,5.08,9.45,8.93,13,14s4.59,11.49,8,17c8,12.85,19,25.1,27,38,3.29,5.32,3.32,11.92,6,18,1.77,4,5.82,7.45,8,11q2,6,4,12c2.87,6.56,8.53,12.11,12,18l3,9,12,11c5.17,6.82,11.6,14.84,15,23,4.18,10,3,19.37,6,31,4,15.5,6.18,34.42,10,51,2.5,10.84-1.24,26.16,8,30,4.9,3.36,12.09-.85,16-2,10.47-18.06,8.48-29.83,5-53q1-9.49,2-19-.49-13-1-26c1.44-5.24,6-10.27,8-15,2.81-6.67,2.2-12.93,5-20,1.62-4.08,5.71-7.9,7-13,1.14-4.5-.36-12-1-15-2-9.08,1.53-18.5,3-25q-.49-10-1-20c3.48-14.61,5.21-32.51-1-47-9.29-21.66-50.43-25.45-52-53h1v-1c11.4-1.38,32.33,2,41,7,3.43,2,4.63,7.66,11,7,4.72-.49,6.83-4.69,10-6l10-1c5.63-3.51,14.28-23,17-30v-10c.4-1,3.58-3,4-4,2.13-5,5.37-24.28,5-27-.16-1.17-2.3-4.14-2-6,.42-2.64,4-8.26,5-11,4-11.42-2-25.2,8-32,3.44-2.84,7.26-1.61,11,0a17.82,17.82,0,0,0,3,4c-3.17,9.41-5.64,30,2,38l4,1c6.18,4.47,11.41,13,14,21v11c1.07,2.74,4.82,6.35,6,9,3.24,7.3-.7,13.12,2,20,.2.52,2.74,2.25,3,3,2.55,7.36-2.45,14.88,0,22,2,5.87,7.06,10.74,5,19,2.3,5.89,9,9.1,12,14,5.08,8.3,5.48,17.91,10,27,.65,1.32,3.34,3.44,4,5,3,7.17-1,13.25,2,21,.2.52,2.74,2.25,3,3q.49,7.5,1,15l3,2c1.43,3.11.35,7.27,0,9-1.66,8.09,5,16,9,19,3.82,3.1,7.54,1.16,12,0,1-5,2.55-9.06,8-10-.28-7.51-3.42-12.53-5-18-4.56-15.82,5.23-24.85,3-38-.48-2.84-.14-11-2-16-1.27-3.39-4.15-7.39-5-12-1.44-7.75,4.25-19.18,2-28-.3-1.18-2.78-4.39-3-5-.76-2.11,1.49-9.81,1-13-.18-1.19-2.75-4.81-3-6-.56-2.69,1.58-5.34,2-7,2-8.11-1.19-14.66-2-20-1.91-12.66,3.31-37.27,0-52-3.36-15-1.6-36.26-4-52-.89-5.84,4.73-15.58,2-24-.54-1.65-3.45-4.35-4-6-3.84-11.56,2.29-26.86,0-37-7.66-33.88-1.14-71.6-7-105-13.41-7.8-29.9-20.13-33-38-.86-5,2.1-6.87,2-13l-2-9c1.1-5,4-7.57,3-14-5.09-2.49-7.54-4-16-4-2.75,2.28-2.24-.17-5,1-4,1.69-7.48,6.77-11,9l-7,2c-8.36,5-14.28,13.79-22,19-8.14,5.5-24.28,8.4-34,11-14.91,4-32.09-3.33-43-7l-13-1c-4.22-1.82-7.79-7.86-12-10l-11-1c-2.61-.93-5.59-4.85-8-6l-7-1c-6.77-3.58-11.79-10.2-18-14l-8-2-4-5c-3.36-2.25-9.83-4.59-13-6l-9-1c-1.65-.78-13.09-7.52-15-9-1.71-1.33-2.11-4.76-4-6-10.79-7.1-38.42-8.36-51-17l-6-8c-6.89-4.28-12.67-7.28-19-12-2-1.52-2.42-3.9-4-6-4.77-6.35-12.3-12.37-18-18-10.92-10.79-24.27-21.25-39-28-8.43-3.87-19.77.19-23-9h1c1.41-4.18,4.33-5.23,7-8,24.07-.46,37.48,9.63,52,19,4.52,2.91,7.86,9.62,13,12,7.36,3.41,13.36-2.41,22,0,1.85.52,5.45,3.77,7,4,3.9.58,8.73-2.22,15,0,2.64.93,5.74,4.81,8,6l8,1c1.59.6,3.4,3.44,5,4h9c2.93,1.1,7.56,4.75,10,6l12,1c5.66,1.39,19,7.83,23,6,3.51-3,6.11-9.42,9-13,3.7.87,4.71,2.91,7,4l12,2c4.66,2.53,9.19,10,14,12,8.32,3.48,21.85-3.1,29,1,2.22,1.28,13.81,9.11,15,11,2.47,3.93,1.48,6.08,6,8,4.53,3.35,14.52,1,21,2,2.89,5.52,6.93,11.64,15,12,5.35-7,12.12-3.5,15-6,1.65-1.43,1.41-5.44,3-7l17-9c2.52-.75,8.52,1,10,2,11.47-2.76,30.74,1.78,39,7,4,2.53,9,7.23,14,9,3,1.06,4.83-.94,7-1a58.88,58.88,0,0,1,19,3c4.81,1.82,10.27,6.13,15,8,2.53,1,5.32-1.16,8,0v2h4c.33.67.67,1.33,1,2,5,2,6.08-1.51,11,0,2.78.85,4.72,3.71,7,3a15,15,0,0,0,10-13c-4.58-2.77-10.37-5.62-15-9-3.77-2.75-6-8.17-10-11-3.69-2.63-9.09-2.47-11-7-1.54-2.35-.59-4.28,0-7h2c2.75-1.74,6.64-.26,11,0,4,5.88,10.15,9.89,16,14l8,9c16.68,11.64,32.74,19.73,41,40,10.73,1,22.43-4,35-1h10c3.39,1.4,6.61,6.6,10,8,7.61,3.15,8.26-3.94,15-2,3.93,1.13,8.07,6.82,12,5,4.62,2.68,7.68,8.7,12,11,.77.41,5.81-1,9,0,1.85.61,4.92,3.25,7,4s.5-1.27,1-2c2.8-.42.92.74,2,2,7.11,1.44,8.89-3.22,16,0,4,1.8,15.4-2.86,21-1,.33.67.67,1.33,1,2,4.35,1.43,9.07-3.22,16-1,1.62.52,4.37,3.52,6,4,4.47,1.32,13.8-4.61,15-3,6.4,3.32,10,12.08,16,15h11c3.21,1.19,1.94,3.92,4,6,0,0,4.45-.65,6,0,4.81,2,9.61,6.17,15,8l2-1c2.14,2.48,1.86,5.41,5,7,4.11-6.26,10.59.09,14,0,4.46-.11,8.64-3.15,14-1,4.79,1.92,8,7.34,16,7,2.14-.09,11.17,2,17,0,2.14-.73,4.69-4.42,7-5,4.4-1.11,6,4.34,12,2,5.23-2,9.94-9.4,16-11,4.43-1.17,7.16,1.89,12,1,7.43-1.37,10.39-8,16-10l12,1a17.82,17.82,0,0,0,3,4c-.63,1.75-.19,1-1,2-2.77,3.34-30.58,16.31-36,18l-15,2c-9,2.48-20.51,4.8-30,7l-23,1c-4.84,1.68-17.36,5.75-26,3-.84-.27-3.16-2.74-4-3-9.06-2.84-16.5,5.14-27,2-4.53-1.36-13.1-1.23-19-3-6.11-1.83-13.81-5.24-21-7-8.92-2.19-17.08.3-25-1-3-.48-6.49-4-9-5-5.14-2.11-8.21-1.38-13-3-12.45-4.22-17.49.11-26-8-16.59,3.94-27.54,18-33,33l-2,12c-2.36,5.54-6.33,12.52-7,20,3,2.87,8.15,7.36,10,11v4c2.58,4.76,9.1,8.28,12,13,2.59,4.22,2.29,10,5,14l8,7a139.67,139.67,0,0,1,8,12c.33,1.67.67,3.33,1,5,3,5,10.86,9.27,13,15,3,7.92.42,15.91,4,23,1.85,3.67,6.79,5.91,9,9l3,9c4,5.32,10.62,8.81,14,15a192.74,192.74,0,0,1,11,25l2,12c3.06,6.8,13.66,11.14,19,16,.32,7.3-1,17.51,0,20,2,5.2,9.18,10.07,11,14v9c.1,6,1.38,12.06,4,16,4.28,6.44,10.8,13.16,15,20,3.06,5,2.89,10.61,6,16,3.58,6.21,10.48,13.91,13,21,5.18,14.56-14.57,23.63-12,35,1.14,5,5.37,18.39,4,24-2,8-9.33,15.34-11,25q1,7.5,2,15c-1,4.63-4.62,10.7-6,16q-1,16.5-2,33c-1.62,4.56-6.41,9.56-8,15q-.49,8.51-1,17c-5,11.21-13.32,24.38-17,37-3.27,11.24,3,22.08,5,29v8c.28,1.55.54,45.48-1,51-1.64,5.89-5.31,11.75-7,18v11c-1.31,3.7-6.23,8.31-8,12-1.1,2.3.89,1.62,2,2l-3,14c-.84,1.83-4.17,4-5,6-3.51,8.61,2.58,12.67,0,22-1.45,5.23-6.43,7.85-8,12v8c-1.37,4.14-4.84,10.68-6,16,.33,3.33.67,6.67,1,10-2.53,9.88-8.93,19.53-12,30-2,6.8-.43,14.24,1,20,1.75,7.08-1.12,45.5-3,51-1.09,3.17-14.93,17.6-18,19-9.16,4.19-23.26,2.73-27,12-5.74,7.17,2.47,35.88,5,43,1,2.74-.88,9.76,1,15,.72,2,4.28,4.22,5,6,1.35,3.34-1.19,8.36,1,13,3.51,7.44,10.22,16.4,13,24,.33,3,.67,6,1,9,3.62,7.86,12,15.68,15,24,7.28,20.36,6.89,44.37,13,66,1.6,5.65,7.45,14.89,5,23-.73,2.41-4,5.16-5,7-2.27,4.39-7,31.92-4,40,2.31,6.23,6,15.82,8,23,2.92,10.66.72,20.2,4,30,1.28,3.82,4.86,6.56,6,11,1.63,6.32-1.83,9.95-1,14,3,14.46,18,23.21,25,34,5.31,8.15,6.66,17.13,12,25,2.4,3.54,7.74,6.29,10,10,1.35,2.21.5,4.14,2,6l7,5c3.34,5.15,2.52,11.89,6,17,5.74,8.41,16.5,19.09,21,28,2.7,5.34-1.59,10.16,1,17,1.37,3.62,5.48,6.44,7,10,6,14,10.24,27,15,42,2.91,9.16-1.56,21.7-3,27-2.3,8.48,1.46,17.92,1,23-.15,1.66-2.27,7.79-1,11,.47,1.18,3.53,3.53,4,5q-.49,7-1,14c1,3.17,5.23,8.8,6,12,1,4.24-3.21,6.78-3,10,.17,2.63,3.34,6.95,4,9v8c.59,1.52,3.44,5,4,7v11c.9,2.4,4.21,6.35,5,9,2.74,9.22-.68,27.87,2,34,.63,1.45,4.23,3.46,5,5,2.8,5.57,3.7,15.65,5,21,1.4,5.79-1.69,7.35,0,13,7.92,26.45,12.11,62.82,18,86,.72,2.83-2.47,6.68-1,12,.34,1.23,2.06,1.69,2,4,0,.7-1.66,4.61-1,7,1.14,4.14,5,8,6,12-.33,1.33-.67,2.67-1,4,.91,4.1,3.87,10.35,5,15v11c2.81,10.92,7.28,27.08,10,40,1.37,6.49-1.81,16.28,1,24,8.64,23.76,16.86,58.52,24,87q.49,12,1,24c1,4.28,3.29,11.05,4,15-.67,3.33-1.33,6.67-2,10,.34,2.69,3.34,6.87,4,9v11c2.69,11.1,5.51,23.77,8,35,1.15,5.21-1.91,7.2-1,11,1.66,7,8.07,16.5,6,25,.28.76,2.85,3.25,3,4l-3,9c.32,1.77,3.14,3.67,4,6,2.83,7.63-3.6,10.14-2,16,.54,2,4.32,4.27,5,6,3,7.72-4.39,11.82-2,20,2.31,7.92,6.79,17.31,9,26q.49,10,1,20c5.13,16.43,13.09,36.3,17,53-.33,1.33-.67,2.67-1,4,1.43,6,5.57,8.13,8,13,4.34,8.7,3.4,23.17,7,34,10.76,32.36,21.29,68.31,31,101,2.32,7.82,2.24,15,4,23-.33,1.33-.67,2.67-1,4h2c-.33,1.33-.67,2.67-1,4,.26,1,2.65,4.64,3,6v10c.8,2.41,4.09,5.62,5,8,4.13,10.85,1.88,19.74,5,28,.83,2.21,4.12,4.24,5,6,1.92,3.84,3,12,2,15,.66,1.4,3.55,5.36,4,7,.93,3.39-.66,9.1,1,14,1.4,4.14,5,9.31,6,14-.33,3.33-.67,6.67-1,10,1,3,5.83,5.16,7,8v14c1.24,4.82,5.63,8.51,7,12,1,2.57-1.47,5.21-1,8,.83,4.91,6.45,16.66,4,24-1.69,5.07-6,6.31-6,12-8.17,1-15.84,3.54-24,2-.54-14.17-6.25-26.21-10-37v-8c-1.19-4-4.58-9.81-6-14-2-5.92-.16-9.63-2-16-1.37-4.75-5.41-9.08-7-13-3.6-8.86-1.84-19.76-5-29-.57-1.67-3.42-4.33-4-6-1.92-5.48-.27-8.84-2-14-1.13-3.38-4.78-5.82-6-9q-.49-6-1-12c-.89-2.42-4.07-5.59-5-8-2.06-5.33-2.46-12.95-4-17v-12c-1.31-3.86-8.94-13.38-11-18v-8c-1.76-7.12-2.93-14.31-5-22,.33-1,.67-2,1-3-.58-1.41-4.3-3.49-5-5-2.79-6.05.58-12.82-2-20-.59-1.64-3.18-2.72-4-4-2.42-3.8-4.6-11.27-6-15-2.1-5.6-.16-10.67-2-17-.63-2.17-3.31-5.12-4-7-2.22-6.05-2.43-14.6-4-20v-8c-.68-2.09-3.12-2.59-4-4-1.82-2.9.81-3.41,0-6-.59-1.9-3-4.05-4-7v-11c-.72-1.86-4.15-5.28-5-7q-.49-6.49-1-13c-5.38-16.88-12.76-37.3-19-53-.73-1.84-.16-6.65-1-9C1722.1,3521.09,1716.34,3510.78,1718,3496Z 
    
    M1390,2281c-3,1.85-7,.87-11,2a95.74,95.74,0,0,0-15,6c-3.2,22.92,11,27.2,20,40,9.28,13.12,15.09,28.79,24,42,4.33,6.41,10.12,24.12,22,16,3.44-1.08,4.88-2.6,6-6,4.64-6-1-22.29-3-29-5.29-17.81-3.69-39.28-13-53l-19-18Z" fill-rule="evenodd"/>
    <circle cx="1373" cy="2345" r="1.41" fill="none"/>
  </g>
  <g id="petals" class="g-to-color" style="isolation: isolate">
    <path d="M1067,479c15.88,0,22.58,8.6,35,12,15.42,4.23,30.71-6.86,45-1,7.34,3,9.37,10,15,14,6.17,4.41,17.38,8.08,25,10,13.68,3.44,28.86-3.48,39-6l14-1c5.06-1.22,12.56-4.85,20-3,17.51,4.35,41.65,4.25,59,10,9.5,3.15,17.36,9.69,26,13,9.4,3.6,18,4.1,27,8,2.87,1.25,6.23,5,9,6,10.6,3.62,25.5-2.18,33-4l37-3c6.37-1.5,17-5.3,25-2,9.43,3.87,14.58,23,20,32,4.43,7.33,13.93,10.14,21,15,3.57,2.46,6.4,7.58,10,10,7.57,5.09,19.72,4.9,29,8,7,2.32,12,7.42,18,10l29,7c8.74,3.75,16,12.17,25,16,6.23,2.66,13.52,2.44,19,6,8.31,5.41,15.06,14.84,25,19,10.16,4.25,26.07-.85,37-3,5.31-1,11.83,2,16,3h24c7,1.77,17.09,4.35,23,8,18.9,11.69,37.22,25.74,55,39,6,4.46,8.22,13.56,14,18,2.5,1.92,5.41,2.18,8,4,4.87,3.42,9.38,9.48,15,12,5.92,2.65,11.64,2,15,7,3.91,5.75,3.53,13.8,7,20,2.44,4.36,8.1,8,11,12,4.39,6.11,7.52,12,12,18,9.38,12.48,31.45,22,45,31,2.44,1.63,4.58,5.45,7,7,3.93,2.52,8.48,2.07,13,4,6.24,2.66,11.86,7.8,19,10,6.18,1.9,10.3,1.15,15,4,8.53,5.18,16.81,11.9,25,18l15,16,11,2c11.94,7.3,22.28,19.21,34,27,7.05,4.68,16.36,7,21,14,4.86,7.29,3.37,18.41,7,27,3.46,8.2,10.11,14,13,24,3.49,12.13,1,25.74,7,35,4.17,6.45,10.91,12.3,15,19l6,18c3.06,5.93,8.91,12,12,18,3.82,7.42,3.63,15,6,24,1.78,6.77,7.13,20.43,4,30-3.59,11-18.43,24.15-25,34-4.17,6.25-10.23,13.47-13,20-4.07,9.59-3,18.68-11,24-9.56,6.4-22.63,2.67-36,6-6.16,1.53-14.94,6-24,4-6.09-1.36-16-.1-24-2-3.21-.76-7.29-3.25-10-4h-26c-7.06-1.57-19.14-5.56-29-3-9.36,2.43-15.18,10-23,13-13.14,5.08-30.63,2.21-42,9-9,5.38-11.53,15.25-23,19-12.25,4-27,5.25-39,8h-18c-9.56,2.29-19.54,6-28,9l-17,3c-16.45,6.79-24.08,19.8-35,32-13.77-2.37-28.51,8.14-41,13-4.92,1.91-6.71-1.78-12,0-2.73.92-5.29,5-8,6h-15c-3.37.89-14.4,3.86-19,3-1-.2-6.24-2.77-8-3-2.26-.29-6.48,3.16-10,2v-2c-7.3-3.41-8.85,5.14-15,3-6.4-2.23-11.34-11.78-19-15h-11c-5.34-3-6.92-8.78-15-10-.09.1-1.31,2.89-2,2v-1c-7.65-4-15.87-18-24-19-2.45,1.22-14-3.6-18-2-13.28,5.25-32.42,4.79-44,2-4.76-1.15-5.3,3.39-10,2-3.11-.92-6.34-5.76-9-7l-3,1c-1.23-.42-.39-2-3-2,0,.93.63,2.51-1,2-4.69-1.48-7.41-6.63-11-9-2.47-1.63-5.77-.42-7-1-1.68-.79-3.46-4.1-5-5-5.85-3.43-12.17.19-17,1v-2c2.47-1.29.68.43,2-2h-5c-5.24-4.52-11.39-.34-16-2-3.65-1.31-4.16-6.81-10-5-2.2.68-3.49,2.77-6,3-2.73.25-6.17-4-11-2-2.47,1-3.36,5.17-8,4-5.24-1.32-7.67-13.15-11-17-5.3-6.12-10.7-8.57-18-13l-8-9c-5.47-3.82-9.29-6.45-15-10-7.74-4.81-9.16-14.83-22-15-2.75-2.6-6.09-1.88-10-1v2c-5.54,8.81,6,9.12,9,12,1.5,1.42,1.53,4.54,3,6,8,7.88,20.64,8.24,21,24-4.3,2.17-7.11,5.4-12,7-6.06-9.12-6.71-2.53-17-6-7.9-2.67-15.28-11.33-24-14-8.07-2.47-14.58,2.74-21,0-1.13-.48-2.56-3.44-4-4-2.72-1-4.89.29-7-1-1.74-1.06-2.85-4.16-5-5-10.57-4.12-14.74-2.84-25-6-3.75-1.15-8.74-4.1-13-3-2.63.68-8.08,5.28-12,7-2.59,1.14-4.94-.3-7,1-3.59,2.26-6.13,7.93-10,10-3.65,1.94-8.43,2.74-14,7-7.07-7.94-19.09-9.62-31-10-2-.07-1.59,2.67-5,2-7.52-1.48-16.86-8.67-21-14-1.59-2-2.59-5-5-6h-10c-3.67-1.27-20.34-11.16-23-14-5.74,2.57-5.3,4.06-12,4-8.23-12.53-20.25-26.15-33-34-4.77-2.94-10.7-2.35-16-5l-7-8c-2.23-1.37-4-.57-6-2-4-2.9-6.08-9-10-12-1.68-1.31-3.83-1.29-5-3-1.66-2.42-.39-5.18-2-8-1.16-2-4.12-1.59-6-3-2.06-1.54-5.56-6.93-7-9-2.89-4.17-3.22-9.51-6-14-2.42-3.92-7.38-5.56-10-9-2.32-3-2.87-6.79-5-10-4.19-6.3-11-12.79-14-20-2.21-5.26-1.74-10-4-15l-9-12-3-1c-3.87-5.8-.18-15.19-2-23-2.1-9-10.21-20.94-7-33,3.38-12.7,14.51-17.79,15-33a265.45,265.45,0,0,0-24-20c-7.3-5.44-12.64-14.52-20-20-6.72-5-15-9.4-20-16-4.17-5.52-6.59-11.8-11-17-6.85-8.07-17.66-13.31-24-22-5.06-6.94-13.89-19.48-17-27q-1-6.5-2-13c-2.63-4.61-24.32-8.26-30-12-9.1-6-21.55-12.3-28-21l-10-18c-14.78-15.78-33.78-28.78-44-49-3.42-6.77-7.85-19.24-5-29,2.5-8.55,16.48-32.77,23-37,8.61-5.59,21.86-4.31,30-10,5.9-4.12,9.63-16.16,14-22,5.56-7.44,17.5-11.41,25-17,6.62-4.94,9.65-14.77,18-18,8.88-3.44,17.85-1.64,28-4l34-7c10-2.39,17.71-1.47,25-6,15-9.32,23.54-35.1,37-44,6.88-4.55,16.6-2.67,26-5,15.56-3.86,33-4.79,50-9,5.09-1.26,12.58-4.83,19-4,3.63.47,8,3.18,11,4C1025.8,486.84,1064.06,480.87,1067,479Z" fill-rule="evenodd"/>
  </g>
  <g id="shadow_Imagen" data-name="shadow Imagen">
    <image id="shadow_Imagen-2" data-name="shadow Imagen" width="1685" height="3522" transform="translate(509 466)" xlink:href="IMGs/flower31.png"/>
  </g>
</svg>
