<svg id="Capa_1" enable-background="new 0 0 512.052 512.052" height="512" viewBox="0 0 512.052 512.052" width="512" xmlns="http://www.w3.org/2000/svg"><g id="XMLID_1170_"><g id="XMLID_396_"><path id="XMLID_425_" d="m506.216 427.457-60.486-104.764c15.918-8.544 26.27-25.26 26.27-44.042v-208.634c0-27.57-22.43-50-50-50h-59.317c-5.523 0-10 4.477-10 10s4.477 10 10 10h59.317c16.542 0 30 13.458 30 30v208.634c0 11.477-6.447 21.651-16.29 26.687l-35.893-62.168c-7.782-13.479-21.72-21.526-37.284-21.526s-29.502 8.047-37.284 21.526l-37.253 64.524c-.146-65.617-44.401-121.068-104.63-138.207v-99.47c0-16.542 13.458-30 30-30h59.317c5.523 0 10-4.477 10-10s-4.477-10-10-10h-59.317c-27.57 0-50 22.43-50 50v95.307c-6.336-.856-12.799-1.307-19.366-1.307-79.402 0-144 64.598-144 144s64.598 144 144 144c26.363 0 51.09-7.128 72.367-19.548-5.179 12.334-4.355 26.196 2.483 38.041 7.782 13.479 21.72 21.526 37.284 21.526h212.797c15.564 0 29.502-8.047 37.284-21.526s7.783-29.573.001-43.053zm-486.216-119.44c0-68.374 55.626-124 124-124s124 55.626 124 124-55.626 124-124 124-124-55.626-124-124zm468.895 152.493c-4.167 7.217-11.63 11.526-19.963 11.526h-212.798c-8.333 0-15.797-4.309-19.963-11.526-4.167-7.217-4.167-15.835 0-23.053l106.398-184.287c4.167-7.217 11.63-11.526 19.963-11.526 8.334 0 15.797 4.309 19.964 11.526l106.399 184.288c4.168 7.217 4.167 15.835 0 23.052z"/><path id="XMLID_427_" d="m317.68 40.016c2.64 0 5.21-1.07 7.07-2.93 1.87-1.86 2.93-4.44 2.93-7.07s-1.06-5.21-2.93-7.07c-1.86-1.86-4.43-2.93-7.07-2.93-2.63 0-5.21 1.07-7.07 2.93s-2.93 4.44-2.93 7.07 1.07 5.21 2.93 7.07c1.86 1.861 4.44 2.93 7.07 2.93z"/></g></g></svg>