<svg height="512pt" viewBox="0 -53 512 512" width="512pt" xmlns="http://www.w3.org/2000/svg"><path d="m504.394531 0h-407.25c-4.199219 0-7.601562 3.40625-7.601562 7.605469s3.402343 7.601562 7.601562 7.601562h388.894531l-40.554687 40.554688h-378.96875l-40.554687-40.554688h40.765624c4.199219 0 7.605469-3.402343 7.605469-7.601562s-3.40625-7.605469-7.605469-7.605469h-59.121093c-4.199219 0-7.605469 3.40625-7.605469 7.605469v390.421875c0 4.199218 3.40625 7.601562 7.605469 7.601562h496.789062c4.203125 0 7.605469-3.402344 7.605469-7.601562v-390.421875c0-4.199219-3.402344-7.605469-7.605469-7.605469zm-48.15625 339.113281v-272.597656l40.554688-40.554687v353.707031zm-385.269531-268.144531h370.0625v263.691406h-78.320312c-4.199219 0-7.601563 3.402344-7.601563 7.601563s3.402344 7.605469 7.601563 7.605469h82.773437l40.554687 40.554687h-460.078124l40.554687-40.554687h265.777344c4.203125 0 7.605469-3.40625 7.605469-7.605469s-3.402344-7.601563-7.605469-7.601563h-261.324219zm-15.207031 268.144531-40.554688 40.554688v-353.707031l40.554688 40.554687zm0 0"/></svg>