<svg xmlns="http://www.w3.org/2000/svg" width="62.043" height="75.685" viewBox="0 0 62.043 75.685">
  <g id="color-palette" transform="translate(0)">
    <path id="Path_1" data-name="Path 1" d="M132.689,179.764a5.936,5.936,0,1,0-5.936-5.936A5.943,5.943,0,0,0,132.689,179.764Zm0-9.655a3.719,3.719,0,1,1-3.719,3.719A3.723,3.723,0,0,1,132.689,170.109Z" transform="translate(-114.837 -143.074)" fill="#505050"/>
    <path id="Path_2" data-name="Path 2" d="M221.936,139.4a5.792,5.792,0,1,0-5.792-5.792A5.8,5.8,0,0,0,221.936,139.4Zm0-9.366a3.575,3.575,0,1,1-3.575,3.575A3.579,3.579,0,0,1,221.936,130.03Z" transform="translate(-191.014 -108.919)" fill="#505050"/>
    <path id="Path_3" data-name="Path 3" d="M149.641,371.7a5.792,5.792,0,1,0-5.792-5.792A5.8,5.8,0,0,0,149.641,371.7Zm0-9.366a3.575,3.575,0,1,1-3.575,3.575A3.579,3.579,0,0,1,149.641,362.333Z" transform="translate(-129.406 -306.884)" fill="#505050"/>
    <path id="Path_4" data-name="Path 4" d="M241.91,401.308a5.792,5.792,0,1,0-5.792-5.792A5.8,5.8,0,0,0,241.91,401.308Zm0-9.366a3.575,3.575,0,1,1-3.575,3.575A3.579,3.579,0,0,1,241.91,391.941Z" transform="translate(-208.036 -332.115)" fill="#505050"/>
    <path id="Path_5" data-name="Path 5" d="M84.953,267.959a6.759,6.759,0,1,0,6.759-6.759A6.767,6.767,0,0,0,84.953,267.959Zm6.759-4.542a4.542,4.542,0,1,1-4.542,4.542A4.547,4.547,0,0,1,91.712,263.417Z" transform="translate(-79.216 -222.589)" fill="#505050"/>
    <path id="Path_6" data-name="Path 6" d="M46.142,44.2c0,16.724,14.407,29.436,31.22,30.46l.068,0a1.109,1.109,0,0,0,.066-2.215c-16.339-1-29.137-13.4-29.137-28.247,0-16.819,16.014-29.8,34.314-28.139A10.034,10.034,0,0,0,85.6,18.138a2.62,2.62,0,0,0,.034,1.228l2.194,8.07a2.37,2.37,0,0,0-.485,2.158l.522,1.921a2.372,2.372,0,0,0,2.682,1.712l1.036,4.485c-3.745,1.706-5.793,3.991-5.793,6.492s2.093,4.833,5.893,6.539a10.646,10.646,0,0,1,3.48,2.473,94.4,94.4,0,0,0,2.488,9.743,10.39,10.39,0,0,1-6.827,7.618,34.081,34.081,0,0,1-8.321,1.8,1.109,1.109,0,0,0,.195,2.209,36.3,36.3,0,0,0,8.863-1.921,12.736,12.736,0,0,0,7.289-6.475,59.754,59.754,0,0,0,4.09,8.076,2.807,2.807,0,0,0,5.243-1.425,53.985,53.985,0,0,0-2.55-17.614,1.109,1.109,0,0,0-2.116.664,51.957,51.957,0,0,1,2.448,16.973.59.59,0,0,1-1.1.3c-4.665-8.135-5.252-10.547-7.6-20.729L92.694,32.656l3.258-.886L97.6,37.033h0l4.368,13.923a1.109,1.109,0,1,0,2.116-.664l-4.043-12.887a9.075,9.075,0,0,0,2.588-15.245A33.528,33.528,0,0,0,95.489,17.4l-.181-.667a2.573,2.573,0,0,0-.594-1.075,8.664,8.664,0,0,0,1.423-7.2c-.781-2.871-2.7-3.978-4.731-5.151A16.832,16.832,0,0,1,87.669.641a2.132,2.132,0,0,0-3.6.978A16.834,16.834,0,0,1,82.2,5.813c-1.171,2.063-2.6,4.463-1.087,7.93C62.3,12.933,46.142,26.583,46.142,44.2Zm48.2,5.466a13.449,13.449,0,0,0-1.753-.949c-2.913-1.308-4.584-2.954-4.584-4.517,0-1.487,1.472-3.015,4.085-4.283Zm6.826-25.84a6.86,6.86,0,0,1-1.794,11.454l-1.289-4.107a2.375,2.375,0,0,0,1.446-2.834l-.522-1.921A2.373,2.373,0,0,0,97.5,24.807l-1.214-4.465a31.049,31.049,0,0,1,4.884,3.489ZM96.691,26.9h0a.15.15,0,0,1,.182.1l.522,1.921a.149.149,0,0,1-.1.183l-7.1,1.931a.149.149,0,0,1-.183-.1l-.522-1.921a.152.152,0,0,1,.1-.183Zm-1.436-1.907-5.393,1.466-2.086-7.674a.375.375,0,0,1,.26-.455l4.678-1.272a.372.372,0,0,1,.455.26ZM84.132,6.908a19.152,19.152,0,0,0,2.057-4.613A19.109,19.109,0,0,0,90.3,5.232C92.131,6.29,93.456,7.055,94,9.044a6.738,6.738,0,0,1-1.419,5.794,2.752,2.752,0,0,0-.446.08L87.454,16.19a2.783,2.783,0,0,0-.425.156,6.658,6.658,0,0,1-4.158-4.277C82.33,10.08,83.086,8.75,84.132,6.908Z" transform="translate(-46.142 0.002)" fill="#505050"/>
  </g>
</svg>
