<svg xmlns="http://www.w3.org/2000/svg" width="74.425" height="75.592" viewBox="0 0 74.425 75.592">
  <g id="flower" transform="translate(0)">
    <path id="Path_7" data-name="Path 7" d="M76.159,42.965l-.911-.708a4.9,4.9,0,0,0-.433-2.751L73.293,36.3a1.246,1.246,0,0,1-.1-.774l.846-4.413a4.217,4.217,0,0,0-4.487-5L65.1,26.48a1.244,1.244,0,0,1-.762-.183l-3.018-1.864a4.9,4.9,0,0,0-1.86-.679l-.578-1.038A5.84,5.84,0,0,0,54.1,19.7a5.754,5.754,0,0,0-5.881,4.637,28.981,28.981,0,0,0-.44,3.333,1.12,1.12,0,0,0,.338.9,1.138,1.138,0,0,0,.785.316,1.089,1.089,0,0,0,.12-.007A1.109,1.109,0,0,0,50,27.66a26.741,26.741,0,0,1,.393-2.908,3.486,3.486,0,0,1,3.6-2.84,3.609,3.609,0,0,1,2.944,1.881l.111.2a4.906,4.906,0,0,0-2.36,1.8A21.15,21.15,0,0,0,50.884,36.9a26.784,26.784,0,0,1-.818-4.319,1.109,1.109,0,0,0-1.227-1.17,1.123,1.123,0,0,0-1,1.228,28.842,28.842,0,0,0,2.7,9.644l.893,1.864a4.628,4.628,0,0,0,.261.7,31.282,31.282,0,0,0-7.213,8.473V51.6c0-.564-.024-1.127-.068-1.688a2.373,2.373,0,0,0-.04-.471,22.3,22.3,0,0,0-2.5-8.289l-4.74-8.89a5.6,5.6,0,0,0,.955-1.373l1.574-2.131A36.875,36.875,0,0,0,46.826,7,7,7,0,0,0,34.468,2.507L33.318,3.88a5.955,5.955,0,0,0-2.524.378L27.705,5.435a5.592,5.592,0,0,1-3.512.162l-4.319-1.2a5.076,5.076,0,0,0-6.437,4.89V13.8a5.594,5.594,0,0,1-1.089,3.328L10.387,19.8A5.957,5.957,0,0,0,9.235,23.16l-1.472.75A7,7,0,0,0,9.374,36.961a36.447,36.447,0,0,0,8.151.918,36.833,36.833,0,0,0,14.664-3.033l2.428-1.057a5.593,5.593,0,0,0,.684-.244L39.912,42.2a20.011,20.011,0,0,1,1.737,4.5,8.888,8.888,0,0,0-2.346-.86,9.747,9.747,0,0,0-4.487.192,2.487,2.487,0,0,0-.937,4.49,9.745,9.745,0,0,0,4.037,1.97,8.624,8.624,0,0,0,1.765.178,10.63,10.63,0,0,0,2.582-.335V62.5a11.712,11.712,0,0,0-3.42-2.06,12.531,12.531,0,0,0-5.733-.657,2.931,2.931,0,0,0-1.925,5.069,14.26,14.26,0,0,0,2.176,1.934,1.109,1.109,0,1,0,1.289-1.8,12.031,12.031,0,0,1-1.836-1.633.743.743,0,0,1,.516-1.359,10.339,10.339,0,0,1,4.725.523,10.337,10.337,0,0,1,3.881,2.745,1.1,1.1,0,0,1,.326.668v.041a.538.538,0,0,1-.032.179.907.907,0,0,1-.81.47,11.725,11.725,0,0,1-2.874-.049,1.109,1.109,0,0,0-.324,2.193,13.172,13.172,0,0,0,1.925.138q.735,0,1.494-.076a3.792,3.792,0,0,0,.621-.115v5.779a1.109,1.109,0,0,0,2.217,0V66.066c0-.077,0-.154,0-.231V62.783c.1.018.192.033.291.043q.637.064,1.248.064a9.833,9.833,0,0,0,3.509-.61,10.4,10.4,0,0,0,3.92-2.749,2.589,2.589,0,0,0-1.7-4.469,10.4,10.4,0,0,0-4.757.547,9.188,9.188,0,0,0-1.664.84,29.058,29.058,0,0,1,7.759-9.88,4.617,4.617,0,0,0,.667.42l1.714,1.173a29.147,29.147,0,0,0,16.361,5.054q.512,0,1.023-.018a5.72,5.72,0,0,0,3.3-10.232ZM12.176,21.116l1.96-2.674A7.8,7.8,0,0,0,15.654,13.8V9.285a2.859,2.859,0,0,1,3.626-2.754l4.319,1.2a7.8,7.8,0,0,0,4.9-.226l3.089-1.176a3.772,3.772,0,0,1,4.777,1.976c.186.413.369.854.543,1.31a1.109,1.109,0,1,0,2.072-.79c-.19-.5-.389-.978-.592-1.43a5.961,5.961,0,0,0-2.72-2.864l.505-.6A4.778,4.778,0,0,1,44.61,7a34.675,34.675,0,0,1-4.486,16.977,26.827,26.827,0,0,0,.185-10.362,1.109,1.109,0,0,0-2.182.393,24.577,24.577,0,0,1-.6,11.194l-.368,1.258-3.8-8.139a1.109,1.109,0,0,0-2.009.937l4.853,10.4a3.381,3.381,0,0,1-2.251,2.012l-.043.012a3.439,3.439,0,0,1-.368.072l-7.99-8.061a1.109,1.109,0,0,0-1.575,1.561L30.5,31.832l-1.713.027c-.128,0-.255,0-.384,0a24.475,24.475,0,0,1-15.593-5.616,3.772,3.772,0,0,1-.637-5.131ZM9.87,34.8a4.778,4.778,0,0,1-1.1-8.914l.846-.431a5.953,5.953,0,0,0,1.782,2.5,26.692,26.692,0,0,0,16.519,6.12A34.681,34.681,0,0,1,9.87,34.8ZM41.84,50.155a6.932,6.932,0,0,1-6.586-1.374c-.18-.142-.244-.285-.228-.363s.132-.183.354-.242a8.506,8.506,0,0,1,2.159-.3,6.414,6.414,0,0,1,1.312.131,7.562,7.562,0,0,1,3.115,1.54.637.637,0,0,1,.216.268c0,.035.005.071.008.106-.024.077-.138.175-.35.231Zm5.942,7.527a7.628,7.628,0,0,1,2.722-.466q.5,0,1.026.053c.251.025.437.121.486.25a.558.558,0,0,1-.2.509,7.529,7.529,0,0,1-6.827,2.593c-.25-.025-.437-.121-.486-.25a.558.558,0,0,1,.2-.509,8.2,8.2,0,0,1,3.078-2.179Zm8.727-30.613a2.714,2.714,0,0,1,3.644-.749l3.018,1.864h0a3.44,3.44,0,0,0,2.109.506l4.455-.366a2,2,0,0,1,2.127,2.369l-.846,4.413a3.447,3.447,0,0,0,.273,2.143l1.522,3.208A2.715,2.715,0,0,1,71.667,44a18.932,18.932,0,0,1-12.956,1.937l-.762-.159,5.522-3.781a1.109,1.109,0,0,0-1.253-1.83l-7.234,4.953c-.044-.018-.087-.036-.13-.056l-.026-.013a2.407,2.407,0,0,1-.8-.625l-.011-.016c-.01-.013-.021-.024-.032-.036a2.408,2.408,0,0,1-.409-.781,1.11,1.11,0,0,0-.032-.171l5.194-7.184a1.109,1.109,0,1,0-1.8-1.3L53.2,40.12l-.037-.388a18.93,18.93,0,0,1,3.35-12.664ZM76.088,48.14a3.486,3.486,0,0,1-3.313,2.841A26.925,26.925,0,0,1,60.4,48.435a21.151,21.151,0,0,0,12.331-2.5,4.9,4.9,0,0,0,1.683-1.521l.381.3A3.487,3.487,0,0,1,76.088,48.14Z" transform="translate(-3.944 0)" fill="#505050"/>
  </g>
</svg>
