<svg xmlns="http://www.w3.org/2000/svg" width="59.96" height="75.683" viewBox="0 0 59.96 75.683">
  <path id="frame" d="M74.559,0H14.36a1.124,1.124,0,0,0,0,2.248H71.846L65.851,8.243H9.832L3.838,2.248H9.863A1.124,1.124,0,1,0,9.863,0H1.124A1.124,1.124,0,0,0,0,1.124V58.836A1.124,1.124,0,0,0,1.124,59.96H74.559a1.124,1.124,0,0,0,1.124-1.124V1.124A1.124,1.124,0,0,0,74.559,0ZM67.441,50.127V9.832l5.995-5.995V56.122ZM10.49,10.49h54.7V49.469H53.616a1.124,1.124,0,0,0,0,2.248H65.851l5.995,5.995H3.838l5.995-5.995H49.119a1.124,1.124,0,1,0,0-2.248H10.491ZM8.243,50.127,2.248,56.122V3.837L8.243,9.832Zm0,0" transform="translate(59.96) rotate(90)" fill="#505050"/>
</svg>
