<svg xmlns="http://www.w3.org/2000/svg" width="75.683" height="75.683" viewBox="0 0 75.683 75.683">
  <g id="text-box" transform="translate(0)">
    <path id="Path_11" data-name="Path 11" d="M440.94,0h-9.113a1.478,1.478,0,0,0-1.478,1.478v9.113a1.478,1.478,0,0,0,1.478,1.478h9.113a1.478,1.478,0,0,0,1.478-1.478V1.478A1.478,1.478,0,0,0,440.94,0Zm-1.478,9.113H433.3V2.956h6.157Z" transform="translate(-366.734)" fill="#505050"/>
    <path id="Path_12" data-name="Path 12" d="M10.592,0H1.478A1.478,1.478,0,0,0,0,1.478v9.113A1.478,1.478,0,0,0,1.478,12.07h9.113a1.478,1.478,0,0,0,1.478-1.478V1.478A1.478,1.478,0,0,0,10.592,0ZM9.113,9.113H2.956V2.956H9.113Z" transform="translate(0)" fill="#505050"/>
    <path id="Path_13" data-name="Path 13" d="M104.634,33.782h3.078a1.478,1.478,0,1,0,0-2.956h-3.078a1.478,1.478,0,1,0,0,2.956Z" transform="translate(-87.908 -26.269)" fill="#505050"/>
    <path id="Path_14" data-name="Path 14" d="M170.851,33.782h3.078a1.478,1.478,0,1,0,0-2.956h-3.078a1.478,1.478,0,1,0,0,2.956Z" transform="translate(-144.336 -26.269)" fill="#505050"/>
    <path id="Path_15" data-name="Path 15" d="M237.067,33.782h3.078a1.478,1.478,0,1,0,0-2.956h-3.078a1.478,1.478,0,1,0,0,2.956Z" transform="translate(-200.764 -26.269)" fill="#505050"/>
    <path id="Path_16" data-name="Path 16" d="M303.283,33.782h3.078a1.478,1.478,0,1,0,0-2.956h-3.078a1.478,1.478,0,0,0,0,2.956Z" transform="translate(-257.192 -26.269)" fill="#505050"/>
    <path id="Path_17" data-name="Path 17" d="M372.578,30.826H369.5a1.478,1.478,0,1,0,0,2.956h3.078a1.478,1.478,0,0,0,0-2.956Z" transform="translate(-313.621 -26.269)" fill="#505050"/>
    <path id="Path_18" data-name="Path 18" d="M440.94,430.348h-9.113a1.478,1.478,0,0,0-1.478,1.478v9.113a1.478,1.478,0,0,0,1.478,1.478h9.113a1.478,1.478,0,0,0,1.478-1.478v-9.113A1.478,1.478,0,0,0,440.94,430.348Zm-1.478,9.113H433.3V433.3h6.157Z" transform="translate(-366.734 -366.734)" fill="#505050"/>
    <path id="Path_19" data-name="Path 19" d="M10.592,430.348H1.478A1.478,1.478,0,0,0,0,431.826v9.113a1.478,1.478,0,0,0,1.478,1.478h9.113a1.478,1.478,0,0,0,1.478-1.478v-9.113A1.478,1.478,0,0,0,10.592,430.348Zm-1.478,9.113H2.956V433.3H9.113Z" transform="translate(0 -366.734)" fill="#505050"/>
    <path id="Path_20" data-name="Path 20" d="M107.713,461.174h-3.078a1.478,1.478,0,1,0,0,2.956h3.078a1.478,1.478,0,1,0,0-2.956Z" transform="translate(-87.908 -393.004)" fill="#505050"/>
    <path id="Path_21" data-name="Path 21" d="M173.929,461.174h-3.078a1.478,1.478,0,1,0,0,2.956h3.078a1.478,1.478,0,1,0,0-2.956Z" transform="translate(-144.336 -393.004)" fill="#505050"/>
    <path id="Path_22" data-name="Path 22" d="M240.145,461.174h-3.078a1.478,1.478,0,1,0,0,2.956h3.078a1.478,1.478,0,1,0,0-2.956Z" transform="translate(-200.764 -393.004)" fill="#505050"/>
    <path id="Path_23" data-name="Path 23" d="M306.361,461.174h-3.078a1.478,1.478,0,1,0,0,2.956h3.078a1.478,1.478,0,1,0,0-2.956Z" transform="translate(-257.192 -393.004)" fill="#505050"/>
    <path id="Path_24" data-name="Path 24" d="M372.578,461.174H369.5a1.478,1.478,0,1,0,0,2.956h3.078a1.478,1.478,0,1,0,0-2.956Z" transform="translate(-313.621 -393.004)" fill="#505050"/>
    <path id="Path_25" data-name="Path 25" d="M462.652,109.191a1.478,1.478,0,0,0,1.478-1.478v-3.078a1.478,1.478,0,1,0-2.956,0v3.078A1.478,1.478,0,0,0,462.652,109.191Z" transform="translate(-393.004 -87.908)" fill="#505050"/>
    <path id="Path_26" data-name="Path 26" d="M461.174,173.929a1.478,1.478,0,1,0,2.956,0v-3.078a1.478,1.478,0,1,0-2.956,0Z" transform="translate(-393.004 -144.336)" fill="#505050"/>
    <path id="Path_27" data-name="Path 27" d="M461.174,240.145a1.478,1.478,0,1,0,2.956,0v-3.078a1.478,1.478,0,1,0-2.956,0Z" transform="translate(-393.004 -200.764)" fill="#505050"/>
    <path id="Path_28" data-name="Path 28" d="M461.174,306.361a1.478,1.478,0,1,0,2.956,0v-3.078a1.478,1.478,0,0,0-2.956,0Z" transform="translate(-393.004 -257.192)" fill="#505050"/>
    <path id="Path_29" data-name="Path 29" d="M461.174,372.578a1.478,1.478,0,1,0,2.956,0V369.5a1.478,1.478,0,1,0-2.956,0Z" transform="translate(-393.004 -313.621)" fill="#505050"/>
    <path id="Path_30" data-name="Path 30" d="M32.3,109.191a1.478,1.478,0,0,0,1.478-1.478v-3.078a1.478,1.478,0,1,0-2.956,0v3.078A1.478,1.478,0,0,0,32.3,109.191Z" transform="translate(-26.269 -87.908)" fill="#505050"/>
    <path id="Path_31" data-name="Path 31" d="M30.826,173.929a1.478,1.478,0,1,0,2.956,0v-3.078a1.478,1.478,0,1,0-2.956,0Z" transform="translate(-26.269 -144.336)" fill="#505050"/>
    <path id="Path_32" data-name="Path 32" d="M30.826,240.145a1.478,1.478,0,1,0,2.956,0v-3.078a1.478,1.478,0,1,0-2.956,0Z" transform="translate(-26.269 -200.764)" fill="#505050"/>
    <path id="Path_33" data-name="Path 33" d="M30.826,306.361a1.478,1.478,0,1,0,2.956,0v-3.078a1.478,1.478,0,0,0-2.956,0Z" transform="translate(-26.269 -257.192)" fill="#505050"/>
    <path id="Path_34" data-name="Path 34" d="M30.826,372.578a1.478,1.478,0,1,0,2.956,0V369.5a1.478,1.478,0,0,0-2.956,0Z" transform="translate(-26.269 -313.621)" fill="#505050"/>
    <path id="Path_35" data-name="Path 35" d="M154.6,130.9h-6.3V103.284h4.142v3.382a1.478,1.478,0,0,0,1.478,1.478h7.331a1.478,1.478,0,0,0,1.478-1.478V94.474A1.478,1.478,0,0,0,161.252,93H125.061a1.478,1.478,0,0,0-1.478,1.478v12.191a1.478,1.478,0,0,0,1.478,1.478h7.331a1.478,1.478,0,0,0,1.478-1.478v-3.382h4.142V130.9h-6.3a1.478,1.478,0,0,0-1.478,1.478v7.331a1.478,1.478,0,0,0,1.478,1.478H154.6a1.478,1.478,0,0,0,1.478-1.478v-7.331A1.478,1.478,0,0,0,154.6,130.9Zm-1.478,7.331H133.191v-4.375h6.3a1.478,1.478,0,0,0,1.478-1.478V101.805a1.478,1.478,0,0,0-1.478-1.478h-7.1a1.478,1.478,0,0,0-1.478,1.478v3.382h-4.375V95.952h33.235v9.235H155.4v-3.382a1.478,1.478,0,0,0-1.478-1.478h-7.1a1.478,1.478,0,0,0-1.478,1.478v30.571a1.478,1.478,0,0,0,1.478,1.478h6.3v4.375Z" transform="translate(-105.315 -79.249)" fill="#505050"/>
  </g>
</svg>
